<svg width="20" height="20" viewBox="0 0 20 20" fill="none" xmlns="http://www.w3.org/2000/svg">
<path opacity="0.5" d="M4.16648 14.7917C4.03868 14.7918 3.91392 14.7527 3.80901 14.6797C3.70411 14.6067 3.62411 14.5033 3.57979 14.3834C3.53548 14.2635 3.52897 14.1329 3.56116 14.0092C3.59335 13.8856 3.66268 13.7747 3.75981 13.6917L9.59315 8.69166C9.70641 8.59461 9.85065 8.54126 9.99981 8.54126C10.149 8.54126 10.2932 8.59461 10.4065 8.69166L16.2398 13.6917C16.3369 13.7747 16.4063 13.8856 16.4385 14.0092C16.4707 14.1329 16.4642 14.2635 16.4198 14.3834C16.3755 14.5033 16.2955 14.6067 16.1906 14.6797C16.0857 14.7527 15.9609 14.7918 15.8331 14.7917H4.16648Z" fill="#FF5630"/>
<path fill-rule="evenodd" clip-rule="evenodd" d="M3.6925 11.24C3.74594 11.3023 3.81115 11.3535 3.88439 11.3907C3.95763 11.4278 4.03747 11.4502 4.11935 11.4564C4.20123 11.4627 4.28354 11.4528 4.36158 11.4272C4.43962 11.4016 4.51186 11.361 4.57417 11.3075L10.0008 6.65664L15.4275 11.3075C15.4893 11.3641 15.5618 11.4076 15.6408 11.4356C15.7198 11.4636 15.8036 11.4754 15.8872 11.4704C15.9708 11.4654 16.0526 11.4436 16.1277 11.4063C16.2027 11.369 16.2695 11.317 16.324 11.2534C16.3786 11.1898 16.4198 11.1159 16.4452 11.0361C16.4706 10.9562 16.4797 10.8721 16.4719 10.7887C16.4642 10.7052 16.4397 10.6242 16.4 10.5504C16.3603 10.4766 16.3062 10.4116 16.2408 10.3591L10.4075 5.35914C10.2942 5.26209 10.15 5.20874 10.0008 5.20874C9.85168 5.20874 9.70744 5.26209 9.59417 5.35914L3.76084 10.3591C3.63516 10.467 3.55745 10.6204 3.5448 10.7856C3.53214 10.9507 3.58557 11.1142 3.69334 11.24H3.6925Z" fill="#FF5630"/>
</svg>
