<svg width="20" height="20" viewBox="0 0 20 20" fill="none" xmlns="http://www.w3.org/2000/svg">
<path opacity="0.5" d="M4.16648 5.2085C4.03868 5.2084 3.91392 5.24749 3.80901 5.32049C3.70411 5.39349 3.62411 5.4969 3.57979 5.61677C3.53548 5.73665 3.52897 5.86722 3.56116 5.99091C3.59335 6.11459 3.66268 6.22543 3.75981 6.3085L9.59315 11.3085C9.82648 11.5085 10.1723 11.5085 10.4065 11.3085L16.2398 6.3085C16.3369 6.22543 16.4063 6.11459 16.4385 5.99091C16.4707 5.86722 16.4642 5.73665 16.4198 5.61677C16.3755 5.4969 16.2955 5.39349 16.1906 5.32049C16.0857 5.24749 15.9609 5.2084 15.8331 5.2085H4.16648Z" fill="#00B8D9"/>
<path fill-rule="evenodd" clip-rule="evenodd" d="M3.69096 8.7601C3.7444 8.69774 3.8096 8.64654 3.88284 8.60939C3.95609 8.57225 4.03593 8.54991 4.11781 8.54364C4.19969 8.53737 4.282 8.5473 4.36004 8.57286C4.43808 8.59842 4.51032 8.63911 4.57263 8.6926L9.99929 13.3434L15.426 8.6926C15.4882 8.63854 15.5605 8.59732 15.6387 8.57133C15.717 8.54533 15.7995 8.53506 15.8818 8.54112C15.964 8.54717 16.0442 8.56943 16.1177 8.60661C16.1913 8.64379 16.2568 8.69516 16.3104 8.75775C16.3641 8.82035 16.4048 8.89293 16.4303 8.97133C16.4557 9.04973 16.4654 9.1324 16.4588 9.21456C16.4522 9.29673 16.4294 9.37678 16.3917 9.45009C16.3541 9.52341 16.3023 9.58855 16.2393 9.64176L10.406 14.6418C10.2927 14.7388 10.1485 14.7922 9.99929 14.7922C9.85014 14.7922 9.70589 14.7388 9.59263 14.6418L3.75929 9.64176C3.69694 9.58832 3.64573 9.52312 3.60859 9.44988C3.57145 9.37664 3.54911 9.2968 3.54284 9.21492C3.53657 9.13304 3.5465 9.05073 3.57206 8.97269C3.59762 8.89464 3.6383 8.82241 3.69179 8.7601H3.69096Z" fill="#00B8D9"/>
</svg>
