<svg width="20" height="20" viewBox="0 0 20 20" fill="none" xmlns="http://www.w3.org/2000/svg">
<path opacity="0.5" d="M5.20898 15.8335C5.20889 15.9613 5.24798 16.0861 5.32098 16.191C5.39398 16.2959 5.49739 16.3759 5.61726 16.4202C5.73713 16.4645 5.86771 16.471 5.9914 16.4388C6.11508 16.4066 6.22592 16.3373 6.30898 16.2402L11.309 10.4068C11.406 10.2936 11.4594 10.1493 11.4594 10.0002C11.4594 9.85102 11.406 9.70678 11.309 9.59351L6.30898 3.76018C6.22592 3.66305 6.11508 3.59372 5.9914 3.56153C5.86771 3.52934 5.73713 3.53584 5.61726 3.58016C5.49739 3.62448 5.39398 3.70448 5.32098 3.80938C5.24798 3.91428 5.20889 4.03904 5.20898 4.16685V15.8335Z" fill="#FFAB00"/>
<path fill-rule="evenodd" clip-rule="evenodd" d="M8.75973 16.3085C8.69738 16.255 8.64617 16.1898 8.60903 16.1166C8.57189 16.0433 8.54954 15.9635 8.54328 15.8816C8.53701 15.7997 8.54694 15.7174 8.57249 15.6394C8.59805 15.5613 8.63874 15.4891 8.69223 15.4268L13.3431 10.0001L8.69223 4.57345C8.63817 4.51122 8.59696 4.43891 8.57096 4.36069C8.54496 4.28246 8.5347 4.19987 8.54075 4.11766C8.54681 4.03545 8.56907 3.95525 8.60625 3.88168C8.64343 3.80811 8.69479 3.74262 8.75739 3.68898C8.81998 3.63534 8.89257 3.59462 8.97097 3.56915C9.04937 3.54368 9.13203 3.53398 9.2142 3.54059C9.29636 3.5472 9.37641 3.57 9.44973 3.60768C9.52305 3.64535 9.58819 3.69716 9.6414 3.76012L14.6414 9.59345C14.7385 9.70672 14.7918 9.85096 14.7918 10.0001C14.7918 10.1493 14.7385 10.2935 14.6414 10.4068L9.6414 16.2401C9.58802 16.3025 9.52286 16.3538 9.44965 16.391C9.37644 16.4282 9.29661 16.4507 9.21473 16.457C9.13285 16.4634 9.05052 16.4535 8.97244 16.428C8.89437 16.4025 8.82209 16.3619 8.75973 16.3085Z" fill="#FFAB00"/>
</svg>
