<svg width="20" height="20" viewBox="0 0 20 20" fill="none" xmlns="http://www.w3.org/2000/svg">
<path opacity="0.32" fill-rule="evenodd" clip-rule="evenodd" d="M11.8994 1.79332C11.5911 1.66666 11.1994 1.66666 10.4169 1.66666C9.63443 1.66666 9.24276 1.66666 8.93443 1.79332C8.52397 1.96183 8.19725 2.28646 8.0261 2.69582C7.94776 2.88166 7.91776 3.09916 7.90526 3.41499C7.89971 3.64383 7.83587 3.86746 7.7198 4.06476C7.60373 4.26205 7.43926 4.42648 7.24193 4.54249C7.04088 4.65424 6.81488 4.71344 6.58487 4.71461C6.35485 4.71578 6.12826 4.65887 5.9261 4.54916C5.64443 4.40082 5.44026 4.31916 5.2386 4.29249C4.79739 4.23456 4.35116 4.35316 3.99693 4.62249C3.73193 4.82416 3.5361 5.16082 3.14526 5.83332C2.7536 6.50582 2.5586 6.84166 2.51443 7.17082C2.4561 7.60916 2.5761 8.05249 2.84776 8.40332C2.9711 8.56332 3.14526 8.69749 3.41443 8.86582C3.81193 9.11332 4.06693 9.53499 4.06693 9.99999C4.06693 10.465 3.81193 10.8867 3.41526 11.1333C3.14526 11.3025 2.9711 11.4367 2.84693 11.5967C2.71283 11.7699 2.6144 11.9681 2.55733 12.1796C2.50026 12.3912 2.48568 12.6119 2.51443 12.8292C2.5586 13.1575 2.7536 13.4942 3.14526 14.1667L3.14994 14.1747C3.53849 14.8418 3.73299 15.1758 3.99693 15.3775C4.35026 15.6467 4.79693 15.765 5.2386 15.7075C5.44026 15.6808 5.64443 15.5992 5.9261 15.4508C6.12837 15.341 6.35511 15.284 6.58529 15.2851C6.81546 15.2863 7.04161 15.3456 7.24276 15.4575C7.64776 15.6908 7.88776 16.12 7.90526 16.585C7.91776 16.9017 7.94776 17.1183 8.0261 17.3042C8.1961 17.7125 8.52276 18.0375 8.93443 18.2067C9.24276 18.3333 9.63443 18.3333 10.4169 18.3333C11.1994 18.3333 11.5911 18.3333 11.8994 18.2067C12.3099 18.0381 12.6366 17.7135 12.8078 17.3042C12.8861 17.1183 12.9161 16.9017 12.9286 16.585C12.9453 16.12 13.1861 15.69 13.5919 15.4575C13.793 15.3457 14.019 15.2865 14.249 15.2854C14.479 15.2842 14.7056 15.3411 14.9078 15.4508C15.1894 15.5992 15.3936 15.6808 15.5953 15.7075C16.0369 15.7658 16.4836 15.6467 16.8369 15.3775C17.1019 15.1758 17.2978 14.8392 17.6886 14.1667C18.0803 13.4942 18.2753 13.1583 18.3194 12.8292C18.3481 12.6119 18.3333 12.3911 18.2761 12.1795C18.2189 11.968 18.1203 11.7699 17.9861 11.5967C17.8628 11.4367 17.6886 11.3025 17.4194 11.1342C17.0219 10.8867 16.7669 10.465 16.7669 9.99999C16.7669 9.53499 17.0219 9.11332 17.4186 8.86666C17.6886 8.69749 17.8628 8.56332 17.9869 8.40332C18.121 8.23004 18.2195 8.0319 18.2765 7.82035C18.3336 7.6088 18.3482 7.38804 18.3194 7.17082C18.2753 6.84249 18.0803 6.50582 17.6886 5.83332L17.6839 5.82528C17.2954 5.15815 17.1009 4.82418 16.8369 4.62249C16.4827 4.35316 16.0365 4.23456 15.5953 4.29249C15.3936 4.31916 15.1894 4.40082 14.9078 4.54916C14.7055 4.65901 14.4787 4.716 14.2486 4.71484C14.0184 4.71367 13.7922 4.65439 13.5911 4.54249C13.3939 4.42637 13.2296 4.2619 13.1137 4.06462C12.9978 3.86733 12.9341 3.64375 12.9286 3.41499C12.9161 3.09832 12.8861 2.88166 12.8078 2.69582C12.7231 2.4931 12.5992 2.30906 12.4434 2.1542C12.2875 1.99935 12.1027 1.87672 11.8994 1.79332ZM12.9355 9.99999C12.9355 11.3808 11.8071 12.5 10.4163 12.5C9.02463 12.5 7.89714 11.3808 7.89714 9.99999C7.89714 8.61916 9.02463 7.49999 10.4163 7.49999C11.808 7.49999 12.9355 8.61916 12.9355 9.99999Z" fill="#637381"/>
<path d="M12.9353 10C12.9353 11.3808 11.807 12.5 10.4161 12.5C9.02447 12.5 7.89697 11.3808 7.89697 10C7.89697 8.61917 9.02447 7.5 10.4161 7.5C11.8078 7.5 12.9353 8.61917 12.9353 10Z" fill="#637381"/>
</svg>
