<svg width="40" height="40" viewBox="0 0 40 40" fill="none" xmlns="http://www.w3.org/2000/svg">
<path opacity="0.32" d="M26.7501 16.9902V17.6942C26.7501 18.5392 26.9901 19.3652 27.4421 20.0682L28.5501 21.7912C29.5611 23.3652 28.7891 25.5042 27.0301 26.0012C22.4338 27.3032 17.5663 27.3032 12.9701 26.0012C11.2111 25.5042 10.4391 23.3652 11.4501 21.7912L12.5581 20.0682C13.0116 19.3596 13.2522 18.5356 13.2511 17.6942V16.9902C13.2511 13.1242 16.2731 9.99023 20.0001 9.99023C23.7271 9.99023 26.7501 13.1242 26.7501 16.9902Z" fill="#637381"/>
<path d="M20.7502 13.9902C20.7502 13.7913 20.6711 13.6006 20.5305 13.4599C20.3898 13.3193 20.1991 13.2402 20.0002 13.2402C19.8013 13.2402 19.6105 13.3193 19.4698 13.4599C19.3292 13.6006 19.2502 13.7913 19.2502 13.9902V17.9902C19.2502 18.1891 19.3292 18.3799 19.4698 18.5206C19.6105 18.6612 19.8013 18.7402 20.0002 18.7402C20.1991 18.7402 20.3898 18.6612 20.5305 18.5206C20.6711 18.3799 20.7502 18.1891 20.7502 17.9902V13.9902ZM15.2432 26.5352C15.5699 27.5393 16.206 28.4143 17.0605 29.0348C17.9149 29.6553 18.9437 29.9894 19.9997 29.9894C21.0556 29.9894 22.0845 29.6553 22.9389 29.0348C23.7933 28.4143 24.4294 27.5393 24.7562 26.5352C21.6112 27.1252 18.3892 27.1252 15.2432 26.5352Z" fill="#637381"/>
</svg>
