<svg width="161" height="161" viewBox="0 0 161 161" fill="none" xmlns="http://www.w3.org/2000/svg">
<g clip-path="url(#clip0_322_1630)">
<mask id="mask0_322_1630" style="mask-type:alpha" maskUnits="userSpaceOnUse" x="71" y="26" width="67" height="59">
<path d="M134.663 45.5574L91.8715 26.5055C89.3839 25.3979 86.4693 26.5167 85.3617 29.0043L72.3262 58.2826C71.2186 60.7703 72.3374 63.6848 74.8251 64.7924L117.616 83.8443C120.104 84.9519 123.019 83.8331 124.126 81.3454L137.162 52.0672C138.269 49.5795 137.15 46.665 134.663 45.5574Z" fill="black"/>
</mask>
<g mask="url(#mask0_322_1630)">
<path d="M134.663 45.5574L91.8715 26.5055C89.3839 25.3979 86.4693 26.5167 85.3617 29.0043L72.3262 58.2826C71.2186 60.7703 72.3374 63.6848 74.8251 64.7924L117.616 83.8443C120.104 84.9519 123.019 83.8331 124.126 81.3454L137.162 52.0672C138.269 49.5795 137.15 46.665 134.663 45.5574Z" fill="#F4F6F8"/>
<g opacity="0.24" filter="url(#filter0_f_322_1630)">
<path d="M134.662 45.5573L91.8704 26.5054C90.1858 25.7553 88.3188 26.0453 86.9371 27.0696L100.707 56.3301C101.207 57.4014 102.077 58.2561 103.157 58.7369C104.237 59.2178 105.454 59.2925 106.585 58.9472L137.543 49.601C137.381 47.8877 136.345 46.3068 134.662 45.5573Z" fill="#919EAB"/>
</g>
<path d="M134.662 45.5573L91.8704 26.5054C90.1858 25.7553 88.3188 26.0453 86.9371 27.0696L100.707 56.3301C101.207 57.4014 102.077 58.2561 103.157 58.7369C104.237 59.2178 105.454 59.2925 106.585 58.9472L137.543 49.601C137.381 47.8877 136.345 46.3068 134.662 45.5573Z" fill="#F4F6F8"/>
</g>
<mask id="mask1_322_1630" style="mask-type:alpha" maskUnits="userSpaceOnUse" x="23" y="67" width="84" height="69">
<path d="M89.6915 67.6732L28.2966 80.7231C24.7274 81.4818 22.449 84.9902 23.2077 88.5594L32.1365 130.566C32.8952 134.136 36.4036 136.414 39.9728 135.655L101.368 122.606C104.937 121.847 107.215 118.338 106.457 114.769L97.5278 72.7622C96.7691 69.193 93.2607 66.9146 89.6915 67.6732Z" fill="black"/>
</mask>
<g mask="url(#mask1_322_1630)">
<path d="M89.6915 67.6732L28.2966 80.7231C24.7274 81.4818 22.449 84.9902 23.2077 88.5594L32.1365 130.566C32.8952 134.136 36.4036 136.414 39.9728 135.655L101.368 122.606C104.937 121.847 107.215 118.338 106.457 114.769L97.5278 72.7622C96.7691 69.193 93.2607 66.9146 89.6915 67.6732Z" fill="url(#paint0_linear_322_1630)"/>
<g filter="url(#filter1_f_322_1630)">
<path d="M89.6926 67.6731L28.2977 80.723C25.8807 81.2368 24.0851 83.0217 23.394 85.2203L61.3678 106.096C62.7537 106.863 64.3701 107.104 65.9196 106.775C67.4692 106.446 68.8477 105.568 69.8015 104.303L96.0016 69.7871C94.4757 68.058 92.108 67.1597 89.6926 67.6731Z" fill="#006C9C"/>
</g>
<path d="M89.6926 67.6731L28.2977 80.723C25.8807 81.2368 24.0851 83.0217 23.394 85.2203L61.3678 106.096C62.7537 106.863 64.3701 107.104 65.9196 106.775C67.4692 106.446 68.8477 105.568 69.8015 104.303L96.0016 69.7871C94.4757 68.058 92.108 67.1597 89.6926 67.6731Z" fill="url(#paint1_linear_322_1630)"/>
</g>
<g opacity="0.48">
<path fill-rule="evenodd" clip-rule="evenodd" d="M21.6912 86.5659L23.1469 88.0217L24.6072 86.5619L25.2312 87.1858L23.7706 88.6453L25.2272 90.101L24.6015 90.7266L23.1448 89.271L21.6855 90.7306L21.0615 90.1067L22.521 88.6474L21.0655 87.1915L21.6912 86.5659Z" fill="url(#paint2_linear_322_1630)"/>
<path opacity="0.48" fill-rule="evenodd" clip-rule="evenodd" d="M87.7381 13.2675L89.1937 14.7233L90.6541 13.2635L91.2781 13.8873L89.8175 15.3469L91.2741 16.8025L90.6483 17.4281L89.1916 15.9725L87.7323 17.4321L87.1083 16.8083L88.5679 15.349L87.1124 13.893L87.7381 13.2675Z" fill="#FF5630"/>
<path opacity="0.72" d="M61.9774 105.335C62.2513 105.062 62.6223 104.909 63.0091 104.909C63.396 104.909 63.7671 105.062 64.0409 105.335L65.08 106.374C65.2161 106.509 65.3248 106.671 65.3986 106.848C65.4724 107.026 65.5105 107.216 65.5105 107.409C65.5105 107.601 65.4724 107.791 65.3986 107.969C65.3248 108.146 65.2168 108.307 65.0807 108.442L64.0409 109.482C63.7671 109.755 63.396 109.909 63.0091 109.909C62.6223 109.909 62.2513 109.755 61.9774 109.482L60.9383 108.443C60.8022 108.308 60.6935 108.146 60.6197 107.969C60.5458 107.791 60.5078 107.601 60.5078 107.409C60.5078 107.216 60.5458 107.026 60.6197 106.848C60.6935 106.671 60.8015 106.51 60.9376 106.375L61.9774 105.335Z" fill="#FFAB00"/>
<path fill-rule="evenodd" clip-rule="evenodd" d="M97.1978 39.5406C97.1977 39.5406 97.1979 39.5405 97.1978 39.5406L96.1585 40.5796L95.7196 40.1406L96.1571 40.581C96.1368 40.6011 96.1207 40.6251 96.1097 40.6516C96.0987 40.678 96.093 40.7063 96.093 40.735C96.093 40.7636 96.0987 40.792 96.1097 40.8184C96.1207 40.8448 96.1368 40.8688 96.1571 40.889L96.1585 40.8904L97.1978 41.9294C97.1977 41.9293 97.1979 41.9295 97.1978 41.9294C97.239 41.9704 97.2948 41.9935 97.3529 41.9935C97.411 41.9935 97.4667 41.9705 97.5078 41.9296C97.5077 41.9297 97.5079 41.9296 97.5078 41.9296L98.5487 40.889C98.569 40.8688 98.5851 40.8448 98.5961 40.8184C98.6072 40.7919 98.6128 40.7635 98.6128 40.735C98.6128 40.7064 98.6072 40.6781 98.5961 40.6516C98.5851 40.6251 98.569 40.6011 98.5487 40.581L98.5473 40.5796L97.508 39.5406C97.508 39.5405 97.5081 39.5406 97.508 39.5406C97.4669 39.4997 97.411 39.4764 97.3529 39.4764C97.2948 39.4764 97.239 39.4996 97.1978 39.5406ZM95.2813 39.7011L96.3211 38.6616C96.595 38.3884 96.966 38.235 97.3529 38.235C97.7397 38.235 98.1108 38.3884 98.3847 38.6616L98.3852 38.6621L99.4237 39.7003C99.424 39.7005 99.4242 39.7008 99.4244 39.701C99.5606 39.8365 99.6686 39.9974 99.7423 40.1747C99.8162 40.3521 99.8543 40.5426 99.8543 40.735C99.8543 40.9274 99.8162 41.1178 99.7423 41.2953C99.6686 41.4725 99.5606 41.6335 99.4245 41.7689C99.4242 41.7692 99.424 41.7694 99.4237 41.7697L98.3847 42.8084C98.1108 43.0816 97.7397 43.235 97.3529 43.235C96.966 43.235 96.595 43.0816 96.3211 42.8084L95.2821 41.7697C95.2818 41.7694 95.2816 41.7691 95.2813 41.7689C95.1452 41.6334 95.0372 41.4725 94.9635 41.2953C94.8896 41.1177 94.8516 40.9273 94.8516 40.735C94.8516 40.5427 94.8896 40.3522 94.9635 40.1747C95.0372 39.9974 95.1452 39.8365 95.2813 39.7011Z" fill="#FF5630"/>
<path opacity="0.48" fill-rule="evenodd" clip-rule="evenodd" d="M105.051 66.8173C105.2 66.7788 105.357 66.7779 105.507 66.8152C105.672 66.856 105.821 66.9408 105.941 67.0601C106.06 67.1796 106.145 67.3294 106.186 67.4934C106.223 67.6436 106.222 67.8004 106.184 67.9496L105.608 71.041C105.561 71.2838 105.408 71.6333 105.021 71.7523C104.634 71.8713 104.311 71.6677 104.137 71.4932L101.508 68.8652C101.33 68.6887 101.127 68.365 101.247 67.9773C101.367 67.5898 101.718 67.4374 101.963 67.3921C101.964 67.3921 101.964 67.392 101.964 67.392L105.051 66.8173ZM104.947 68.0539L102.79 68.4553L104.545 70.2099L104.947 68.0539Z" fill="#22C55E"/>
<path opacity="0.8" fill-rule="evenodd" clip-rule="evenodd" d="M102.959 94.7659C103.109 94.7274 103.265 94.7265 103.416 94.7638C103.58 94.8046 103.73 94.8894 103.849 95.0087C103.968 95.1282 104.053 95.278 104.094 95.442C104.131 95.5922 104.13 95.749 104.092 95.8982L103.516 98.9896C103.469 99.2324 103.317 99.5819 102.929 99.7009C102.542 99.8199 102.219 99.6163 102.045 99.4418L99.4162 96.8138C99.2381 96.6373 99.0351 96.3136 99.1554 95.9259C99.2755 95.5384 99.6259 95.386 99.8716 95.3407C99.8719 95.3407 99.8722 95.3406 99.8725 95.3406L102.959 94.7659ZM102.855 96.0025L100.699 96.4039L102.454 98.1585L102.855 96.0025Z" fill="#00A76F"/>
<path opacity="0.8" fill-rule="evenodd" clip-rule="evenodd" d="M13.0004 72.9729C12.8186 72.9729 12.6408 73.0268 12.4896 73.1278C12.3383 73.2289 12.2205 73.3724 12.151 73.5402C12.0814 73.7081 12.0632 73.8929 12.0987 74.0711C12.1341 74.2494 12.2217 74.4131 12.3502 74.5416C12.4787 74.6701 12.6425 74.7576 12.821 74.7931C12.9996 74.8286 13.1845 74.8104 13.3523 74.7409C13.5203 74.6714 13.6639 74.5535 13.765 74.4023C13.866 74.2512 13.9199 74.0736 13.9199 73.8918C13.9199 73.6482 13.823 73.4144 13.6506 73.2421C13.4783 73.0697 13.2444 72.9729 13.0004 72.9729ZM11.6113 71.8132C12.0225 71.5385 12.5059 71.3918 13.0004 71.3918C13.6635 71.3918 14.2995 71.6551 14.7684 72.124C15.2374 72.5928 15.5009 73.2288 15.5009 73.8918C15.5009 74.3864 15.3542 74.8697 15.0794 75.2808C14.8047 75.6919 14.4142 76.0124 13.9572 76.2017C13.5002 76.3909 12.9975 76.4402 12.5127 76.3438C12.0278 76.2474 11.5822 76.0094 11.2324 75.6597C10.8827 75.3101 10.6446 74.8647 10.5481 74.3797C10.4516 73.8947 10.5011 73.3919 10.6904 72.935C10.8797 72.4781 11.2002 72.0878 11.6113 71.8132Z" fill="#8E33FF"/>
<path opacity="0.8" fill-rule="evenodd" clip-rule="evenodd" d="M55.0434 18.9017C54.8616 18.9017 54.6838 18.9556 54.5325 19.0567C54.3813 19.1577 54.2635 19.3012 54.194 19.469C54.1244 19.6369 54.1062 19.8217 54.1417 20C54.1771 20.1782 54.2646 20.3419 54.3932 20.4705C54.5217 20.5989 54.6855 20.6865 54.864 20.722C55.0426 20.7575 55.2275 20.7393 55.3953 20.6698C55.5632 20.6002 55.7069 20.4824 55.8079 20.3312C55.9089 20.18 55.9628 20.0024 55.9628 19.8207C55.9628 19.577 55.866 19.3432 55.6936 19.1709C55.5212 18.9986 55.2874 18.9017 55.0434 18.9017ZM53.6543 17.742C54.0655 17.4674 54.5489 17.3207 55.0434 17.3207C55.7065 17.3207 56.3425 17.584 56.8114 18.0528C57.2804 18.5216 57.5439 19.1576 57.5439 19.8207C57.5439 20.3152 57.3972 20.7986 57.1224 21.2097C56.8477 21.6207 56.4572 21.9413 56.0002 22.1305C55.5432 22.3198 55.0404 22.369 54.5556 22.2726C54.0708 22.1762 53.6252 21.9383 53.2754 21.5886C52.9257 21.2389 52.6875 20.7935 52.591 20.3085C52.4945 19.8235 52.544 19.3207 52.7333 18.8639C52.9226 18.4069 53.2432 18.0166 53.6543 17.742Z" fill="#8E33FF"/>
</g>
</g>
<defs>
<filter id="filter0_f_322_1630" x="74.9375" y="14.0841" width="74.6055" height="57.0769" filterUnits="userSpaceOnUse" color-interpolation-filters="sRGB">
<feFlood flood-opacity="0" result="BackgroundImageFix"/>
<feBlend mode="normal" in="SourceGraphic" in2="BackgroundImageFix" result="shape"/>
<feGaussianBlur stdDeviation="6" result="effect1_foregroundBlur_322_1630"/>
</filter>
<filter id="filter1_f_322_1630" x="-0.605469" y="43.5294" width="120.607" height="87.3893" filterUnits="userSpaceOnUse" color-interpolation-filters="sRGB">
<feFlood flood-opacity="0" result="BackgroundImageFix"/>
<feBlend mode="normal" in="SourceGraphic" in2="BackgroundImageFix" result="shape"/>
<feGaussianBlur stdDeviation="12" result="effect1_foregroundBlur_322_1630"/>
</filter>
<linearGradient id="paint0_linear_322_1630" x1="21.834" y1="82.0968" x2="89.4507" y2="141.984" gradientUnits="userSpaceOnUse">
<stop stop-color="#61F3F3"/>
<stop offset="1" stop-color="#00B8D9"/>
</linearGradient>
<linearGradient id="paint1_linear_322_1630" x1="22.6914" y1="81.9147" x2="58.5537" y2="130.978" gradientUnits="userSpaceOnUse">
<stop stop-color="#61F3F3"/>
<stop offset="1" stop-color="#00B8D9"/>
</linearGradient>
<linearGradient id="paint2_linear_322_1630" x1="21.7806" y1="90.7379" x2="25.9046" y2="89.1211" gradientUnits="userSpaceOnUse">
<stop stop-color="white" stop-opacity="0.16"/>
<stop offset="1" stop-color="white" stop-opacity="0.64"/>
</linearGradient>
<clipPath id="clip0_322_1630">
<rect width="160" height="160" fill="white" transform="translate(0.5 0.5)"/>
</clipPath>
</defs>
</svg>
