<svg width="160" height="161" viewBox="0 0 160 161" fill="none" xmlns="http://www.w3.org/2000/svg">
<g opacity="0.48">
<path fill-rule="evenodd" clip-rule="evenodd" d="M28.2536 115.255L30.1945 117.196L32.1417 115.249L32.9737 116.081L31.0262 118.027L32.9683 119.968L32.134 120.802L30.1917 118.861L28.246 120.808L27.414 119.976L29.3601 118.03L27.4193 116.089L28.2536 115.255Z" fill="url(#paint0_linear_339_17648)"/>
<path opacity="0.48" fill-rule="evenodd" clip-rule="evenodd" d="M116.318 17.5235L118.259 19.4645L120.206 17.5181L121.038 18.3499L119.091 20.296L121.033 22.2369L120.198 23.071L118.256 21.1302L116.31 23.0763L115.478 22.2445L117.425 20.2988L115.484 18.3575L116.318 17.5235Z" fill="#919EAB"/>
<path opacity="0.72" d="M81.9711 140.28C82.3363 139.916 82.831 139.712 83.3468 139.712C83.8626 139.712 84.3574 139.916 84.7226 140.28L86.1079 141.665C86.2894 141.846 86.4344 142.062 86.5327 142.298C86.6312 142.534 86.682 142.788 86.682 143.045C86.682 143.301 86.6312 143.555 86.5327 143.792C86.4344 144.028 86.2904 144.243 86.1089 144.423L84.7226 145.809C84.3574 146.174 83.8626 146.378 83.3468 146.378C82.831 146.378 82.3363 146.174 81.9711 145.809L80.5857 144.424C80.4043 144.244 80.2593 144.028 80.161 143.792C80.0624 143.555 80.0117 143.301 80.0117 143.045C80.0117 142.788 80.0624 142.535 80.161 142.298C80.2593 142.062 80.4032 141.847 80.5847 141.666L81.9711 140.28Z" fill="#919EAB"/>
<path fill-rule="evenodd" clip-rule="evenodd" d="M128.931 52.5543C128.931 52.5543 128.931 52.5542 128.931 52.5543L127.545 53.9397L126.96 53.3544L127.543 53.9414C127.516 53.9683 127.495 54.0003 127.48 54.0356C127.466 54.0709 127.458 54.1086 127.458 54.1468C127.458 54.185 127.466 54.2228 127.48 54.258C127.495 54.2933 127.516 54.3253 127.543 54.3522L127.545 54.354L128.931 55.7394C128.931 55.7393 128.931 55.7394 128.931 55.7394C128.986 55.794 129.06 55.8249 129.138 55.8249C129.215 55.8249 129.29 55.7942 129.344 55.7397C129.344 55.7398 129.344 55.7396 129.344 55.7397L130.732 54.3522C130.759 54.3253 130.781 54.2933 130.795 54.258C130.81 54.2227 130.818 54.1849 130.818 54.1468C130.818 54.1087 130.81 54.071 130.795 54.0356C130.781 54.0003 130.759 53.9683 130.732 53.9414L130.73 53.9396L129.345 52.5543C129.345 52.5542 129.345 52.5544 129.345 52.5543C129.29 52.4997 129.215 52.4688 129.138 52.4688C129.06 52.4688 128.986 52.4997 128.931 52.5543ZM126.376 52.7682L127.762 51.3822C128.127 51.018 128.622 50.8135 129.138 50.8135C129.654 50.8135 130.148 51.018 130.514 51.3822L130.514 51.3829L131.899 52.7672C131.899 52.7676 131.9 52.7679 131.9 52.7682C132.081 52.9488 132.225 53.1634 132.324 53.3997C132.422 53.6364 132.473 53.8902 132.473 54.1468C132.473 54.4033 132.422 54.6572 132.324 54.8939C132.225 55.1302 132.081 55.3448 131.9 55.5254C131.9 55.5257 131.899 55.526 131.899 55.5264L130.514 56.9114C130.148 57.2756 129.654 57.4801 129.138 57.4801C128.622 57.4801 128.127 57.2756 127.762 56.9114L126.377 55.5264C126.376 55.526 126.376 55.5257 126.376 55.5253C126.194 55.3448 126.05 55.1302 125.952 54.8939C125.853 54.6571 125.803 54.4032 125.803 54.1468C125.803 53.8904 125.853 53.6365 125.952 53.3997C126.05 53.1634 126.194 52.9488 126.376 52.7682Z" fill="#919EAB"/>
<path opacity="0.48" fill-rule="evenodd" clip-rule="evenodd" d="M139.404 88.9232C139.603 88.8719 139.812 88.8707 140.012 88.9204C140.231 88.9748 140.431 89.0879 140.59 89.2469C140.749 89.4063 140.862 89.606 140.916 89.8247C140.966 90.0249 140.965 90.234 140.913 90.433L140.146 94.5548C140.083 94.8786 139.88 95.3445 139.363 95.5032C138.847 95.6618 138.417 95.3904 138.184 95.1577L134.679 91.6538C134.442 91.4184 134.171 90.9868 134.331 90.4698C134.492 89.9532 134.959 89.75 135.286 89.6896C135.287 89.6896 135.287 89.6895 135.288 89.6894L139.404 88.9232ZM139.265 90.5719L136.389 91.1072L138.729 93.4466L139.265 90.5719Z" fill="#919EAB"/>
<path opacity="0.8" fill-rule="evenodd" clip-rule="evenodd" d="M136.615 126.188C136.813 126.137 137.023 126.136 137.223 126.185C137.442 126.24 137.642 126.353 137.801 126.512C137.96 126.671 138.073 126.871 138.127 127.09C138.177 127.29 138.176 127.499 138.124 127.698L137.357 131.82C137.294 132.143 137.091 132.609 136.574 132.768C136.058 132.927 135.628 132.655 135.395 132.423L131.89 128.919C131.653 128.683 131.382 128.252 131.542 127.735C131.703 127.218 132.17 127.015 132.497 126.955C132.498 126.954 132.498 126.954 132.499 126.954L136.615 126.188ZM136.476 127.837L133.6 128.372L135.94 130.712L136.476 127.837Z" fill="#637381"/>
<path opacity="0.8" fill-rule="evenodd" clip-rule="evenodd" d="M16.6679 97.1306C16.4255 97.1306 16.1884 97.2025 15.9867 97.3372C15.785 97.472 15.628 97.6633 15.5353 97.887C15.4426 98.1109 15.4183 98.3573 15.4656 98.595C15.5128 98.8326 15.6295 99.0509 15.801 99.2223C15.9723 99.3936 16.1907 99.5103 16.4287 99.5576C16.6668 99.605 16.9133 99.5807 17.1371 99.488C17.361 99.3953 17.5525 99.2382 17.6873 99.0366C17.8219 98.8351 17.8938 98.5982 17.8938 98.3559C17.8938 98.031 17.7647 97.7193 17.5348 97.4895C17.305 97.2598 16.9932 97.1306 16.6679 97.1306ZM14.8158 95.5843C15.364 95.2181 16.0085 95.0226 16.6679 95.0226C17.552 95.0226 18.4 95.3736 19.0252 95.9988C19.6505 96.6239 20.0018 97.4718 20.0018 98.3559C20.0018 99.0153 19.8063 99.6598 19.4399 100.208C19.0736 100.756 18.5529 101.183 17.9436 101.436C17.3342 101.688 16.6639 101.754 16.0175 101.625C15.371 101.497 14.7769 101.179 14.3106 100.713C13.8443 100.247 13.5267 99.653 13.3981 99.0063C13.2694 98.3597 13.3354 97.6893 13.5878 97.0802C13.8402 96.4709 14.2676 95.9505 14.8158 95.5843Z" fill="#637381"/>
<path opacity="0.8" fill-rule="evenodd" clip-rule="evenodd" d="M72.7246 25.0358C72.4821 25.0358 72.2451 25.1077 72.0434 25.2424C71.8417 25.3771 71.6846 25.5684 71.5919 25.7922C71.4992 26.016 71.4749 26.2625 71.5222 26.5001C71.5695 26.7378 71.6862 26.9561 71.8576 27.1274C72.0289 27.2987 72.2473 27.4154 72.4853 27.4628C72.7235 27.5101 72.97 27.4858 73.1938 27.3932C73.4177 27.3005 73.6092 27.1433 73.7439 26.9417C73.8786 26.7402 73.9504 26.5034 73.9504 26.2611C73.9504 25.9362 73.8213 25.6245 73.5915 25.3947C73.3616 25.1649 73.0498 25.0358 72.7246 25.0358ZM70.8724 23.4895C71.4206 23.1233 72.0651 22.9277 72.7246 22.9277C73.6086 22.9277 74.4566 23.2788 75.0819 23.9039C75.7072 24.529 76.0585 25.377 76.0585 26.2611C76.0585 26.9204 75.8629 27.5649 75.4965 28.1131C75.1303 28.6611 74.6096 29.0885 74.0003 29.3408C73.3909 29.5932 72.7206 29.6589 72.0742 29.5303C71.4277 29.4018 70.8336 29.0845 70.3672 28.6182C69.9009 28.1521 69.5834 27.5581 69.4547 26.9115C69.326 26.2649 69.3921 25.5944 69.6444 24.9853C69.8969 24.3761 70.3243 23.8557 70.8724 23.4895Z" fill="#637381"/>
</g>
<g opacity="0.48">
<path fill-rule="evenodd" clip-rule="evenodd" d="M47.4922 52.6905V72.8249C47.4922 75.4852 48.7847 77.9727 51.01 79.4307C57.888 83.9371 73.0516 93.3254 80.0001 93.3254C86.9487 93.3254 102.112 83.9371 108.99 79.4307C111.215 77.9727 112.508 75.4852 112.508 72.8249V52.6905C112.508 45.9579 107.05 40.5 100.318 40.5H59.6827C52.9501 40.5 47.4922 45.9579 47.4922 52.6905ZM62.7303 52.6907C61.0472 52.6907 59.6827 54.0552 59.6827 55.7383C59.6827 57.4214 61.0472 58.7859 62.7303 58.7859H81.016C82.6991 58.7859 84.0636 57.4214 84.0636 55.7383C84.0636 54.0552 82.6991 52.6907 81.016 52.6907H62.7303ZM62.7303 66.9129C61.0472 66.9129 59.6827 68.2774 59.6827 69.9605C59.6827 71.6436 61.0472 73.0081 62.7303 73.0081H93.2065C94.8896 73.0081 96.2541 71.6436 96.2541 69.9605C96.2541 68.2774 94.8896 66.9129 93.2065 66.9129H62.7303Z" fill="url(#paint1_linear_339_17648)"/>
<g filter="url(#filter0_di_339_17648)">
<path d="M47.4927 57.774C45.4224 59.3108 43.5927 60.7163 42.1246 61.8644C39.6784 63.7773 38.145 66.5983 37.9381 69.6967C37.6565 73.913 37.334 80.9908 37.334 91.2938C37.334 101.037 37.9108 107.896 38.4498 112.179C38.8942 115.709 41.2581 118.509 44.7433 119.229C50.3316 120.382 61.0026 121.77 80.0006 121.77C98.9987 121.77 109.67 120.382 115.258 119.229C118.743 118.509 121.107 115.709 121.551 112.179C122.09 107.896 122.667 101.037 122.667 91.2938C122.667 80.9908 122.345 73.913 122.063 69.6967C121.856 66.5983 120.323 63.7773 117.877 61.8644C116.409 60.7163 114.579 59.3108 112.509 57.7741V72.825C112.509 75.4854 111.216 77.9729 108.991 79.4308C102.113 83.9373 86.9492 93.3255 80.0006 93.3255C73.0521 93.3255 57.8885 83.9373 51.0105 79.4308C48.7852 77.9729 47.4927 75.4854 47.4927 72.825V57.774Z" fill="#919EAB"/>
</g>
<g opacity="0.8">
<path d="M59.6836 55.7383C59.6836 54.0552 61.0481 52.6907 62.7312 52.6907H81.0169C82.7 52.6907 84.0645 54.0552 84.0645 55.7383C84.0645 57.4214 82.7 58.7859 81.0169 58.7859H62.7312C61.0481 58.7859 59.6836 57.4214 59.6836 55.7383Z" fill="#637381"/>
<path d="M59.6836 69.9605C59.6836 68.2774 61.0481 66.9129 62.7312 66.9129H93.2074C94.8905 66.9129 96.255 68.2774 96.255 69.9605C96.255 71.6436 94.8905 73.0081 93.2074 73.0081H62.7312C61.0481 73.0081 59.6836 71.6436 59.6836 69.9605Z" fill="#637381"/>
</g>
</g>
<defs>
<filter id="filter0_di_339_17648" x="29.334" y="49.774" width="117.334" height="95.996" filterUnits="userSpaceOnUse" color-interpolation-filters="sRGB">
<feFlood flood-opacity="0" result="BackgroundImageFix"/>
<feColorMatrix in="SourceAlpha" type="matrix" values="0 0 0 0 0 0 0 0 0 0 0 0 0 0 0 0 0 0 127 0" result="hardAlpha"/>
<feOffset dx="8" dy="8"/>
<feGaussianBlur stdDeviation="8"/>
<feColorMatrix type="matrix" values="0 0 0 0 0.270588 0 0 0 0 0.309804 0 0 0 0 0.356863 0 0 0 0.16 0"/>
<feBlend mode="normal" in2="BackgroundImageFix" result="effect1_dropShadow_339_17648"/>
<feBlend mode="normal" in="SourceGraphic" in2="effect1_dropShadow_339_17648" result="shape"/>
<feColorMatrix in="SourceAlpha" type="matrix" values="0 0 0 0 0 0 0 0 0 0 0 0 0 0 0 0 0 0 127 0" result="hardAlpha"/>
<feOffset dx="-2" dy="-2"/>
<feGaussianBlur stdDeviation="2"/>
<feComposite in2="hardAlpha" operator="arithmetic" k2="-1" k3="1"/>
<feColorMatrix type="matrix" values="0 0 0 0 0.270588 0 0 0 0 0.309804 0 0 0 0 0.356863 0 0 0 0.48 0"/>
<feBlend mode="normal" in2="shape" result="effect2_innerShadow_339_17648"/>
</filter>
<linearGradient id="paint0_linear_339_17648" x1="28.3729" y1="120.817" x2="33.8715" y2="118.662" gradientUnits="userSpaceOnUse">
<stop stop-color="white" stop-opacity="0.16"/>
<stop offset="1" stop-color="white" stop-opacity="0.64"/>
</linearGradient>
<linearGradient id="paint1_linear_339_17648" x1="48.2981" y1="72.3391" x2="96.9781" y2="98.4401" gradientUnits="userSpaceOnUse">
<stop stop-color="white" stop-opacity="0.16"/>
<stop offset="1" stop-color="white" stop-opacity="0.64"/>
</linearGradient>
</defs>
</svg>
