<svg width="24" height="24" viewBox="0 0 24 24" fill="none" xmlns="http://www.w3.org/2000/svg">
<path d="M4.97576 15.925L7.50076 12L4.97576 8.075C4.54242 7.40833 4.51742 6.729 4.90076 6.037C5.28409 5.345 5.87576 4.99933 6.67576 5H15.0008C15.3341 5 15.6468 5.075 15.9388 5.225C16.2308 5.375 16.4681 5.58333 16.6508 5.85L20.1758 10.85C20.4258 11.2 20.5508 11.5833 20.5508 12C20.5508 12.4167 20.4258 12.8 20.1758 13.15L16.6508 18.15C16.4674 18.4167 16.2301 18.625 15.9388 18.775C15.6474 18.925 15.3348 19 15.0008 19H6.67576C5.87576 19 5.28409 18.654 4.90076 17.962C4.51742 17.27 4.54242 16.591 4.97576 15.925Z" fill="#637381"/>
</svg>
