<svg width="23" height="22" viewBox="0 0 23 22" fill="none" xmlns="http://www.w3.org/2000/svg">
<g opacity="0.32">
<path d="M11.4997 9.85414C15.8115 9.85414 18.3539 9.76073 19.6287 9.69321C20.2187 9.66196 20.6663 9.17369 20.6663 8.58281V7.51141C20.6663 7.09919 20.5335 6.69475 20.2416 6.40371C18.5289 4.69651 14.5931 2.49628 11.9259 1.91406C11.6441 1.85254 11.3553 1.85254 11.0734 1.91406C8.40624 2.49628 4.4704 4.69651 2.75779 6.40371C2.46583 6.69475 2.33301 7.09919 2.33301 7.51141V8.58281C2.33301 9.17369 2.78061 9.66196 3.37063 9.69321C4.64549 9.76073 7.18781 9.85414 11.4997 9.85414Z" fill="#00B8D9"/>
<path d="M2.49682 17.1679C2.61592 16.8221 2.96209 16.6649 3.32722 16.6442C4.27553 16.5903 6.59707 16.5 11.4997 16.5C16.4023 16.5 18.7238 16.5903 19.6721 16.6442C20.0372 16.6649 20.3834 16.8221 20.5025 17.1679C20.5908 17.4241 20.6663 17.7993 20.6663 18.3333C20.6663 18.8673 20.5908 19.2425 20.5025 19.4987C20.3834 19.8445 20.0372 20.0017 19.6721 20.0224C18.7238 20.0763 16.4023 20.1666 11.4997 20.1666C6.59707 20.1666 4.27553 20.0763 3.32722 20.0224C2.96209 20.0017 2.61592 19.8445 2.49682 19.4987C2.40857 19.2425 2.33301 18.8673 2.33301 18.3333C2.33301 17.7993 2.40857 17.4241 2.49682 17.1679Z" fill="#00B8D9"/>
</g>
<path d="M11.5003 8.25004C12.5128 8.25004 13.3337 7.42923 13.3337 6.41671C13.3337 5.40419 12.5128 4.58337 11.5003 4.58337C10.4878 4.58337 9.66699 5.40419 9.66699 6.41671C9.66699 7.42923 10.4878 8.25004 11.5003 8.25004Z" fill="white"/>
<path d="M13.2848 9.84852C12.727 9.85216 12.1327 9.85417 11.5003 9.85417C10.868 9.85417 10.2737 9.85216 9.71583 9.84852C9.6924 10.4455 9.66699 11.5052 9.66699 13.2917C9.66699 14.8679 9.68677 15.8783 9.70752 16.5044C10.2628 16.5016 10.8595 16.5 11.5003 16.5C12.1411 16.5 12.7378 16.5016 13.2931 16.5044C13.3139 15.8783 13.3337 14.8679 13.3337 13.2917C13.3337 11.5052 13.3082 10.4455 13.2848 9.84852Z" fill="white"/>
<path d="M15.2166 9.82782C15.193 10.4209 15.167 11.4844 15.167 13.2917C15.167 14.8815 15.1871 15.8957 15.2081 16.5205C16.8599 16.5406 18.0107 16.5726 18.7897 16.603C18.8117 15.9863 18.8337 14.9535 18.8337 13.2917C18.8337 11.3836 18.8047 10.3047 18.7801 9.73297C17.9281 9.76821 16.7591 9.8043 15.2166 9.82782Z" fill="white"/>
<path d="M4.22057 9.73297C5.07254 9.76821 6.24154 9.8043 7.784 9.82782C7.80765 10.4209 7.83366 11.4844 7.83366 13.2917C7.83366 14.8815 7.81354 15.8957 7.7926 16.5205C6.1408 16.5406 4.98996 16.5726 4.21091 16.603C4.18899 15.9863 4.16699 14.9535 4.16699 13.2917C4.16699 11.3836 4.196 10.3047 4.22057 9.73297Z" fill="white"/>
</svg>
