<svg width="23" height="22" viewBox="0 0 23 22" fill="none" xmlns="http://www.w3.org/2000/svg">
<path opacity="0.32" fill-rule="evenodd" clip-rule="evenodd" d="M19.6688 7.54141C18.349 7.87338 16.7908 7.89543 15.4449 7.48426C14.8759 7.31041 14.4322 6.86716 14.2402 6.30405C13.7618 4.90125 13.6436 3.18419 13.9952 1.86252C13.2672 1.84424 12.4394 1.83337 11.5 1.83337C8.3061 1.83337 6.40283 1.9588 5.32428 2.07518C4.52523 2.1614 3.9091 2.70262 3.75949 3.49224C3.5266 4.72138 3.25 7.01919 3.25 11C3.25 14.9809 3.5266 17.2787 3.75949 18.5079C3.9091 19.2975 4.52523 19.8387 5.32428 19.9249C6.40283 20.0413 8.3061 20.1667 11.5 20.1667C14.6939 20.1667 16.5972 20.0413 17.6757 19.9249C18.4748 19.8387 19.0909 19.2975 19.2405 18.5079C19.4734 17.2787 19.75 14.9809 19.75 11C19.75 9.66583 19.7189 8.52064 19.6688 7.54141ZM7.83333 11.9167C7.32706 11.9167 6.91667 11.5063 6.91667 11C6.91667 10.4938 7.32706 10.0834 7.83333 10.0834H11.5C12.0063 10.0834 12.4167 10.4938 12.4167 11C12.4167 11.5063 12.0063 11.9167 11.5 11.9167H7.83333ZM7.83333 16.0417C7.32706 16.0417 6.91667 15.6313 6.91667 15.125C6.91667 14.6188 7.32706 14.2084 7.83333 14.2084H14.25C14.7563 14.2084 15.1667 14.6188 15.1667 15.125C15.1667 15.6313 14.7563 16.0417 14.25 16.0417H7.83333Z" fill="#00B8D9"/>
<path d="M6.91699 15.125C6.91699 15.6313 7.32738 16.0417 7.83366 16.0417H14.2503C14.7566 16.0417 15.167 15.6313 15.167 15.125C15.167 14.6187 14.7566 14.2083 14.2503 14.2083H7.83366C7.32738 14.2083 6.91699 14.6187 6.91699 15.125Z" fill="white"/>
<path d="M6.91699 11C6.91699 11.5063 7.32738 11.9167 7.83366 11.9167H11.5003C12.0066 11.9167 12.417 11.5063 12.417 11C12.417 10.4937 12.0066 10.0833 11.5003 10.0833H7.83366C7.32738 10.0833 6.91699 10.4937 6.91699 11Z" fill="white"/>
<path d="M19.6692 7.54137C18.3494 7.87334 16.7911 7.89539 15.4452 7.48421C14.8762 7.31037 14.4326 6.86711 14.2405 6.30401C13.7621 4.90119 13.6439 3.1841 13.9955 1.86243C13.9955 1.86243 15.1176 2.29161 17.1801 4.35411C19.2426 6.41662 19.6692 7.54137 19.6692 7.54137Z" fill="white"/>
</svg>
