<svg width="23" height="22" viewBox="0 0 23 22" fill="none" xmlns="http://www.w3.org/2000/svg">
<path d="M8.19968 5.68333C8.29599 5.61111 8.40557 5.55855 8.52218 5.52868C8.6388 5.4988 8.76015 5.49219 8.87932 5.50921C8.99849 5.52624 9.11314 5.56657 9.21672 5.6279C9.3203 5.68923 9.41079 5.77036 9.48302 5.86667C9.55525 5.96297 9.6078 6.07256 9.63767 6.18917C9.66755 6.30578 9.67416 6.42713 9.65714 6.5463C9.64011 6.66547 9.59979 6.78012 9.53845 6.8837C9.47712 6.98729 9.39599 7.07777 9.29969 7.15C7.86602 8.22525 7.04468 9.27117 6.57443 10.1842C7.22011 10.018 7.90152 10.057 8.52396 10.296C9.1464 10.5349 9.67895 10.9618 10.0476 11.5173C10.4162 12.0729 10.6026 12.7295 10.5809 13.3958C10.5591 14.0622 10.3303 14.7052 9.92626 15.2356C9.52221 15.7659 8.96297 16.1572 8.32627 16.355C7.68958 16.5529 7.00707 16.5475 6.3736 16.3395C5.74014 16.1316 5.18719 15.7314 4.79162 15.1948C4.39604 14.6581 4.17749 14.0115 4.16635 13.3448C4.04889 12.2191 4.20877 11.0817 4.63202 10.032C5.17927 8.6515 6.24902 7.14633 8.19968 5.68333ZM16.4497 5.68333C16.546 5.61111 16.6556 5.55855 16.7722 5.52868C16.8888 5.4988 17.0102 5.49219 17.1293 5.50921C17.2485 5.52624 17.3631 5.56657 17.4667 5.6279C17.5703 5.68923 17.6608 5.77036 17.733 5.86667C17.8052 5.96297 17.8578 6.07256 17.8877 6.18917C17.9175 6.30578 17.9242 6.42713 17.9071 6.5463C17.8901 6.66547 17.8498 6.78012 17.7885 6.8837C17.7271 6.98729 17.646 7.07777 17.5497 7.15C16.116 8.22525 15.2947 9.27117 14.8244 10.1842C15.4701 10.018 16.1515 10.057 16.774 10.296C17.3964 10.5349 17.929 10.9618 18.2976 11.5173C18.6662 12.0729 18.8526 12.7295 18.8309 13.3958C18.8091 14.0622 18.5803 14.7052 18.1763 15.2356C17.7722 15.7659 17.213 16.1572 16.5763 16.355C15.9396 16.5529 15.2571 16.5475 14.6236 16.3395C13.9901 16.1316 13.4372 15.7314 13.0416 15.1948C12.646 14.6581 12.4275 14.0115 12.4164 13.3448C12.2989 12.2191 12.4588 11.0817 12.882 10.032C13.4302 8.6515 14.499 7.14633 16.4497 5.68333Z" fill="#00B8D9"/>
</svg>
