<svg width="23" height="22" viewBox="0 0 23 22" fill="none" xmlns="http://www.w3.org/2000/svg">
<g opacity="0.32">
<path d="M2.89233 21.0689C2.1255 21.0495 1.54467 20.5882 1.48198 19.8237C1.44443 19.3658 1.41699 18.7365 1.41699 17.875C1.41699 17.0135 1.44443 16.3842 1.48198 15.9263C1.54467 15.1618 2.1255 14.7005 2.89233 14.6811C3.22782 14.6725 3.6473 14.6667 4.16699 14.6667C4.68669 14.6667 5.10616 14.6725 5.44166 14.6811C6.2085 14.7005 6.7893 15.1618 6.852 15.9263C6.88954 16.3842 6.91699 17.0135 6.91699 17.875C6.91699 18.7365 6.88954 19.3658 6.852 19.8237C6.7893 20.5882 6.2085 21.0495 5.44166 21.0689C5.10616 21.0775 4.68669 21.0833 4.16699 21.0833C3.6473 21.0833 3.22782 21.0775 2.89233 21.0689Z" fill="#00B8D9"/>
<path d="M17.7754 21.0643C16.882 21.0291 16.2555 20.401 16.1976 19.5088C16.1376 18.5836 16.0837 17.0809 16.0837 14.6667C16.0837 12.2524 16.1376 10.7497 16.1976 9.82456C16.2555 8.93232 16.882 8.30427 17.7754 8.26902C18.0702 8.25738 18.4202 8.25 18.8337 8.25C19.2471 8.25 19.5972 8.25738 19.892 8.26902C20.7853 8.30427 21.4118 8.93232 21.4697 9.82456C21.5298 10.7497 21.5837 12.2524 21.5837 14.6667C21.5837 17.0809 21.5298 18.5836 21.4697 19.5088C21.4118 20.401 20.7853 21.0291 19.892 21.0643C19.5972 21.076 19.2471 21.0833 18.8337 21.0833C18.4202 21.0833 18.0702 21.076 17.7754 21.0643Z" fill="#00B8D9"/>
<path d="M10.3789 21.0679C9.5228 21.0419 8.89883 20.48 8.83732 19.6258C8.78901 18.9544 8.75033 17.9608 8.75033 16.5C8.75033 15.0392 8.78901 14.0456 8.83732 13.3742C8.89883 12.52 9.5228 11.9581 10.3789 11.9321C10.6865 11.9228 11.0569 11.9167 11.5003 11.9167C11.9437 11.9167 12.3142 11.9228 12.6218 11.9321C13.4779 11.9581 14.1018 12.52 14.1633 13.3742C14.2116 14.0456 14.2503 15.0392 14.2503 16.5C14.2503 17.9608 14.2116 18.9544 14.1633 19.6258C14.1018 20.48 13.4779 21.0419 12.6218 21.0679C12.3142 21.0772 11.9437 21.0833 11.5003 21.0833C11.0569 21.0833 10.6865 21.0772 10.3789 21.0679Z" fill="#00B8D9"/>
</g>
<path d="M19.7139 5.54642C19.6684 6.45204 18.8069 6.79231 18.1388 6.17929C17.835 5.90053 17.4713 5.55738 17.0386 5.13599C16.0613 6.02538 14.5455 7.41207 12.7383 9.09012C12.2638 9.53081 11.493 9.48154 11.0784 8.98402L11.0781 8.98365C10.2644 8.0102 9.44475 7.04068 8.59651 6.09716C7.60532 6.8249 5.82616 8.21177 4.06055 9.97736C3.61308 10.4248 2.88757 10.4248 2.4401 9.97736C1.99262 9.52989 1.99262 8.8044 2.4401 8.35692C4.17225 6.62479 6.07274 5 8.111 3.63292L8.11416 3.63079C8.11494 3.63028 8.11471 3.63042 8.11471 3.63042C8.56919 3.32745 9.17433 3.38737 9.56057 3.77359C10.4479 4.66088 11.2496 5.63685 12.0611 6.5933C13.4408 5.3173 14.6031 4.25417 15.4181 3.51216C15.0482 3.13051 14.7418 2.8051 14.4886 2.5291C13.8754 1.86085 14.2159 0.999189 15.1217 0.953604C16.2775 0.895437 17.4637 0.861208 18.6055 1.07467C19.1196 1.17078 19.4967 1.54795 19.5928 2.06206C19.8062 3.20398 19.7721 4.3904 19.7139 5.54642Z" fill="white"/>
</svg>
