<svg width="23" height="22" viewBox="0 0 23 22" fill="none" xmlns="http://www.w3.org/2000/svg">
<path opacity="0.32" d="M4.16699 9.12541V4.58337C4.16699 3.06459 5.39821 1.83337 6.91699 1.83337H16.0837C17.6024 1.83337 18.8337 3.06459 18.8337 4.58337V9.12541C18.8337 9.72555 18.5421 10.2867 18.0401 10.6156C16.4885 11.6322 13.0678 13.75 11.5003 13.75C9.93283 13.75 6.51215 11.6322 4.96056 10.6156C4.45857 10.2867 4.16699 9.72555 4.16699 9.12541Z" fill="white"/>
<path d="M4.16569 5.73012C3.69865 6.0768 3.2859 6.39386 2.95472 6.65284C2.40289 7.08436 2.05698 7.72076 2.0103 8.41971C1.94677 9.37085 1.87402 10.9675 1.87402 13.2917C1.87402 15.4897 2.00415 17.037 2.12574 18.003C2.22598 18.7995 2.75924 19.4311 3.54546 19.5934C4.8061 19.8536 7.21333 20.1667 11.499 20.1667C15.7847 20.1667 18.192 19.8536 19.4526 19.5934C20.2388 19.4311 20.7721 18.7995 20.8723 18.003C20.9939 17.037 21.124 15.4897 21.124 13.2917C21.124 10.9675 21.0513 9.37085 20.9878 8.41971C20.9411 7.72076 20.5952 7.08436 20.0433 6.65284C19.7121 6.39386 19.2994 6.0768 18.8324 5.73012V9.12541C18.8324 9.72555 18.5408 10.2867 18.0388 10.6156C16.4872 11.6322 13.0665 13.75 11.499 13.75C9.93152 13.75 6.51084 11.6322 4.95925 10.6156C4.45726 10.2867 4.16569 9.72555 4.16569 9.12541V5.73012Z" fill="#00B8D9"/>
<path d="M6.91569 5.27087C6.91569 4.89119 7.22351 4.58337 7.60319 4.58337H11.7282C12.1079 4.58337 12.4157 4.89119 12.4157 5.27087C12.4157 5.65056 12.1079 5.95837 11.7282 5.95837H7.60319C7.22351 5.95837 6.91569 5.65056 6.91569 5.27087Z" fill="#00B8D9"/>
<path d="M6.91569 8.47921C6.91569 8.09952 7.22351 7.79171 7.60319 7.79171H14.4782C14.8579 7.79171 15.1657 8.09952 15.1657 8.47921C15.1657 8.85889 14.8579 9.16671 14.4782 9.16671H7.60319C7.22351 9.16671 6.91569 8.85889 6.91569 8.47921Z" fill="#00B8D9"/>
</svg>
