<svg width="23" height="22" viewBox="0 0 23 22" fill="none" xmlns="http://www.w3.org/2000/svg">
<path opacity="0.32" d="M8.0625 6.1875C6.54588 6.1875 5.3125 7.42088 5.3125 8.9375C5.3125 10.4541 6.54588 11.6875 8.0625 11.6875C9.57913 11.6875 10.8125 10.4541 10.8125 8.9375C10.8125 7.42088 9.57913 6.1875 8.0625 6.1875ZM7.03125 10.9093V6.96575L9.98956 8.9375L7.03125 10.9093ZM19.0625 1.375H3.9375C2.42088 1.375 1.1875 2.60838 1.1875 4.125V13.75C1.1875 15.2666 2.42088 16.5 3.9375 16.5H19.0625C20.5791 16.5 21.8125 15.2666 21.8125 13.75V4.125C21.8125 2.60838 20.5791 1.375 19.0625 1.375ZM8.0625 13.0625C5.78756 13.0625 3.9375 11.2124 3.9375 8.9375C3.9375 6.66256 5.78756 4.8125 8.0625 4.8125C10.3374 4.8125 12.1875 6.66256 12.1875 8.9375C12.1875 11.2124 10.3374 13.0625 8.0625 13.0625ZM19.0625 12.375H13.5625V11H19.0625V12.375ZM19.0625 9.625H13.5625V8.25H19.0625V9.625ZM19.0625 6.875H13.5625V5.5H19.0625V6.875Z" fill="#00B8D9"/>
<path d="M13.5625 19.25V17.875H9.4375V19.25H6.6875V20.625H16.3125V19.25H13.5625Z" fill="white"/>
<path d="M8.0625 6.1875C6.54588 6.1875 5.3125 7.42088 5.3125 8.9375C5.3125 10.4541 6.54588 11.6875 8.0625 11.6875C9.57912 11.6875 10.8125 10.4541 10.8125 8.9375C10.8125 7.42088 9.57912 6.1875 8.0625 6.1875ZM7.03125 10.9093V6.96575L9.98956 8.9375L7.03125 10.9093ZM8.0625 13.0625C5.78756 13.0625 3.9375 11.2124 3.9375 8.9375C3.9375 6.66256 5.78756 4.8125 8.0625 4.8125C10.3374 4.8125 12.1875 6.66256 12.1875 8.9375C12.1875 11.2124 10.3374 13.0625 8.0625 13.0625ZM19.0625 12.375H13.5625V11H19.0625V12.375ZM19.0625 9.625H13.5625V8.25H19.0625V9.625ZM19.0625 6.875H13.5625V5.5H19.0625V6.875Z" fill="white"/>
</svg>
