<svg width="23" height="22" viewBox="0 0 23 22" fill="none" xmlns="http://www.w3.org/2000/svg">
<path opacity="0.32" d="M2.6327 3.92941C2.72028 3.17434 3.17836 2.551 3.92056 2.38687C5.07824 2.13084 7.3222 1.83337 11.4997 1.83337C15.6772 1.83337 17.9211 2.13084 19.0788 2.38687C19.821 2.551 20.279 3.17434 20.3666 3.92941C20.4991 5.07122 20.6663 6.95172 20.6663 9.16671C20.6663 13.3047 18.4824 17.1767 14.8031 19.0703C13.574 19.7029 12.3745 20.1667 11.4997 20.1667C10.6249 20.1667 9.42535 19.7029 8.19628 19.0703C4.51693 17.1767 2.33301 13.3047 2.33301 9.16671C2.33301 6.95172 2.50027 5.07122 2.6327 3.92941Z" fill="#00B8D9"/>
<path fill-rule="evenodd" clip-rule="evenodd" d="M8.86096 7.10769C8.92371 5.69579 10.0867 4.58337 11.5 4.58337C12.9133 4.58337 14.0763 5.69579 14.139 7.10769L14.1937 8.33877L14.257 8.34414C14.9927 8.40771 15.512 8.9193 15.5678 9.65566C15.6007 10.0886 15.625 10.6741 15.625 11.4584C15.625 12.2427 15.6007 12.8281 15.5678 13.2611C15.512 13.9974 14.9927 14.509 14.257 14.5726C13.663 14.6239 12.7831 14.6667 11.5 14.6667C10.2169 14.6667 9.33703 14.6239 8.74303 14.5726C8.00727 14.509 7.48798 13.9974 7.43215 13.2611C7.39934 12.8281 7.375 12.2427 7.375 11.4584C7.375 10.742 7.39242 10.1914 7.41685 9.77152C7.46328 8.97444 8.01369 8.40853 8.80628 8.33795L8.86096 7.10769ZM12.3075 7.18909L12.355 8.25696C12.0921 8.25252 11.8076 8.25004 11.5 8.25004C11.1927 8.25004 10.9082 8.25252 10.645 8.25692L10.6925 7.18914C10.7117 6.75707 11.0676 6.41671 11.5 6.41671C11.9324 6.41671 12.2883 6.75707 12.3075 7.18909ZM12.4167 11C12.4167 11.3749 12.1917 11.6972 11.8694 11.8392L11.934 12.4131C11.9499 12.5548 11.9267 12.7099 11.7986 12.7727C11.7293 12.8067 11.6326 12.8334 11.5 12.8334C11.3674 12.8334 11.2707 12.8067 11.2014 12.7727C11.0733 12.7099 11.0501 12.5548 11.0661 12.4131L11.1306 11.8392C10.8083 11.6972 10.5833 11.3749 10.5833 11C10.5833 10.4938 10.9937 10.0834 11.5 10.0834C12.0063 10.0834 12.4167 10.4938 12.4167 11Z" fill="white"/>
</svg>
