<svg width="23" height="22" viewBox="0 0 23 22" fill="none" xmlns="http://www.w3.org/2000/svg">
<path opacity="0.32" d="M2.48151 7.79163C2.33301 8.80271 2.33301 10.1291 2.33301 11.9166C2.33301 15.3734 2.33301 17.1022 3.40734 18.1756C4.48076 19.25 6.20959 19.25 9.66634 19.25H13.333C16.7898 19.25 18.5186 19.25 19.592 18.1756C20.6663 17.1022 20.6663 15.3734 20.6663 11.9166C20.6663 10.1291 20.6663 8.80271 20.5178 7.79163C18.4306 9.14829 17.0932 10.0127 15.8538 10.5462V11C15.8548 11.0902 15.838 11.1798 15.8043 11.2636C15.7707 11.3474 15.7208 11.4237 15.6577 11.4882C15.5301 11.6185 15.356 11.6928 15.1737 11.6948C14.9913 11.6967 14.8157 11.6262 14.6854 11.4986C14.5551 11.3711 14.4808 11.197 14.4788 11.0146C12.5261 11.5294 10.4733 11.5294 8.52051 11.0146C8.51856 11.197 8.44426 11.3711 8.31396 11.4986C8.18365 11.6262 8.00801 11.6967 7.82567 11.6948C7.64334 11.6928 7.46924 11.6185 7.34169 11.4882C7.21413 11.3579 7.14356 11.1823 7.14551 11V10.5453C5.90617 10.0136 4.56967 9.14829 2.48151 7.79163Z" fill="#00B8D9"/>
<path fill-rule="evenodd" clip-rule="evenodd" d="M10.1995 2.06246H10.1812C10.0767 2.06246 9.99604 2.06246 9.91904 2.06705C9.44277 2.096 8.9845 2.25953 8.59749 2.53863C8.21048 2.81773 7.91063 3.20094 7.73279 3.64371C7.69373 3.74766 7.65705 3.8525 7.62279 3.95813L7.61913 3.96913C7.52457 4.21907 7.36471 4.43907 7.15621 4.60621C6.94813 4.61355 6.74921 4.6218 6.55854 4.63371C5.05154 4.72171 4.09546 4.96921 3.40704 5.65763C3.18338 5.8813 3.00554 6.1343 2.86621 6.4258C2.9198 6.44418 2.97091 6.46912 3.01838 6.50005C4.94338 7.7513 6.15338 8.53505 7.15804 9.03646C7.18983 8.86794 7.28345 8.71738 7.42054 8.61433C7.55762 8.51129 7.72827 8.46319 7.89899 8.4795C8.06971 8.4958 8.22817 8.57532 8.34327 8.70245C8.45838 8.82958 8.52181 8.99514 8.52113 9.16663V9.58646C10.4645 10.1731 12.5361 10.1731 14.4795 9.58646V9.16663C14.48 8.99597 14.5439 8.83159 14.6589 8.70548C14.7739 8.57936 14.9317 8.50052 15.1016 8.48428C15.2714 8.46805 15.4413 8.51558 15.5781 8.61764C15.7149 8.7197 15.8088 8.86898 15.8416 9.03646C16.8472 8.53413 18.0572 7.7513 19.9822 6.50005C20.03 6.46909 20.0814 6.44415 20.1353 6.4258C19.9995 6.14068 19.816 5.88088 19.5926 5.65763C18.9051 4.97013 17.949 4.72263 16.442 4.6328C16.2615 4.62271 16.0726 4.61446 15.8755 4.60713C15.6449 4.4192 15.4668 4.17477 15.3585 3.89763L15.3549 3.88938C15.3219 3.7913 15.2962 3.7143 15.2678 3.6428C15.0898 3.2002 14.7899 2.81718 14.4029 2.53825C14.0159 2.25932 13.5577 2.09592 13.0815 2.06705C12.9942 2.06292 12.9068 2.0614 12.8194 2.06246H10.1995ZM14.0835 4.41463L14.0789 4.40455L14.0743 4.39355L14.0697 4.38255L14.067 4.37338L14.0651 4.3688L14.0615 4.3578L14.0578 4.3468L14.056 4.3413L14.0532 4.33396L14.0514 4.32755L14.0495 4.32205C14.0317 4.26626 14.0124 4.21094 13.9918 4.15613C13.911 3.95485 13.7747 3.78064 13.5988 3.65374C13.4229 3.52685 13.2146 3.45249 12.9981 3.4393C12.9325 3.437 12.8667 3.43639 12.801 3.43746H10.1995C10.0685 3.43746 10.0318 3.43746 10.0025 3.4393C9.78597 3.45249 9.57767 3.52685 9.40177 3.65374C9.22587 3.78064 9.0896 3.95485 9.00879 4.15613L9.00604 4.16255L8.99871 4.1818C8.97333 4.25154 8.94949 4.32184 8.92721 4.39263L8.92629 4.39813L8.92354 4.40455L8.92171 4.41188L8.91988 4.41738L8.91621 4.42838L8.91163 4.43938L8.91071 4.44396L8.90704 4.45313L8.90246 4.46413L8.89879 4.47513L8.89421 4.4843C8.88144 4.51757 8.86799 4.55149 8.85388 4.58421L9.66696 4.5833H14.155C14.129 4.52789 14.1057 4.47164 14.0835 4.41463Z" fill="white"/>
</svg>
