<svg width="200" height="150" viewBox="0 0 200 150" fill="none" xmlns="http://www.w3.org/2000/svg">
<path opacity="0.05" d="M122.086 85.913C121.15 87.0266 120.138 87.008 119.535 86.851L119.558 86.2742C119.558 86.2742 122.049 85.1356 121.985 85.3748C121.962 85.4645 122.009 85.68 122.086 85.913Z" fill="#FF5630"/>
<path opacity="0.05" d="M128.914 87.1735C127.324 88.0928 126.391 87.0153 126.174 86.7101C126.307 86.36 126.508 85.792 126.467 85.63C126.407 85.3896 128.894 86.5282 128.894 86.5282L128.914 87.1735Z" fill="#FF5630"/>
<path opacity="0.05" d="M127.209 78.002C127.209 78.002 128.723 77.13 129.053 77.5224C129.383 77.9148 127.209 78.002 127.209 78.002Z" fill="#FF5630"/>
<path opacity="0.05" d="M128.123 78.4814C128.123 78.4814 127.874 78.606 128.423 78.7655C128.972 78.9249 128.123 78.4814 128.123 78.4814Z" fill="#FF5630"/>
<path opacity="0.05" d="M118.972 76.0826C118.921 76.0976 120.232 76.9671 121.415 76.2471C121.41 76.2471 119.267 75.993 118.972 76.0826Z" fill="#FF5630"/>
<path opacity="0.05" d="M121.35 77.7461C121.35 77.7461 120.991 78.4512 120.256 78.5558C119.521 78.6604 121.35 77.7461 121.35 77.7461Z" fill="#FF5630"/>
<path opacity="0.05" d="M126.16 79.2764C126.16 79.2764 127.884 82.0169 127.554 82.6635C127.224 83.31 126.16 79.2764 126.16 79.2764Z" fill="#FF5630"/>
<path opacity="0.05" d="M122.759 90.1738C122.759 90.3271 122.759 90.4703 122.744 90.5887C122.699 91.143 121.335 90.9337 121.335 90.9337C120.089 91.1069 119.641 90.5089 119.492 89.9372C119.446 89.7514 119.423 89.5606 119.424 89.3691C119.423 89.2549 119.431 89.1409 119.446 89.0278V88.9144C119.715 88.8335 120.006 88.8929 120.221 89.0726C120.775 89.5223 121.51 89.1773 121.51 89.1773C121.51 89.1773 122.05 89.2221 122.258 89.4015C122.375 89.5024 122.568 89.2595 122.715 89.0278C122.724 89.1773 122.737 89.4476 122.746 89.7366C122.756 89.8848 122.759 90.0343 122.759 90.1738Z" fill="#FF5630"/>
<path opacity="0.05" d="M120.571 90.1414C120.571 90.1414 120.197 90.5076 119.492 89.9421C119.446 89.7563 119.423 89.5655 119.424 89.374C119.784 89.6481 120.452 90.1414 120.571 90.1414Z" fill="#FF5630"/>
<path opacity="0.05" d="M122.758 90.1738C122.697 90.2213 122.619 90.2412 122.542 90.2289C122.465 90.2167 122.397 90.1733 122.354 90.1091C122.499 89.9985 122.632 89.8733 122.752 89.7354C122.756 89.8848 122.758 90.0343 122.758 90.1738Z" fill="#FF5630"/>
<path opacity="0.05" d="M125.682 90.4298C125.682 90.5843 125.682 90.7276 125.696 90.8447C125.74 91.4003 127.105 91.1897 127.105 91.1897C128.35 91.3641 128.799 90.7662 128.947 90.1932C129.02 89.8958 129.036 89.5871 128.993 89.2838V89.1704C128.724 89.0908 128.433 89.1501 128.217 89.3286C127.663 89.7783 126.929 89.4333 126.929 89.4333C126.929 89.4333 126.39 89.4794 126.181 89.6587C126.064 89.7596 125.871 89.5167 125.726 89.285C125.717 89.4345 125.702 89.7048 125.693 89.9938C125.683 90.1396 125.681 90.2891 125.682 90.4298Z" fill="#FF5630"/>
<path opacity="0.05" d="M127.869 90.395C127.869 90.395 128.243 90.7613 128.947 90.1957C128.994 90.0105 129.017 89.82 129.016 89.6289C128.655 89.9017 127.987 90.395 127.869 90.395Z" fill="#FF5630"/>
<path opacity="0.05" d="M125.682 90.4297C125.743 90.4771 125.821 90.497 125.898 90.4847C125.974 90.4724 126.042 90.4291 126.086 90.3649C125.94 90.2545 125.807 90.1293 125.687 89.9912C125.683 90.1395 125.681 90.2889 125.682 90.4297Z" fill="#FF5630"/>
<path fill-rule="evenodd" clip-rule="evenodd" d="M65.6629 116.442C65.361 116.078 65.2226 115.606 65.2805 115.138L70.7791 70.146L71.235 66.4089C71.3407 65.5489 72.0678 64.9007 72.9342 64.8941L89.04 64.7869C89.5033 64.7841 89.946 64.5948 90.268 64.2617C90.5901 63.9286 90.7644 63.4799 90.7517 63.0168L90.7454 62.8461C90.7296 62.379 90.904 61.9255 91.2288 61.5894C91.5536 61.2534 92.0009 61.0635 92.4683 61.0635H109.393C110.343 61.0635 111.113 61.8325 111.115 62.7826C111.115 62.86 111.11 62.9374 111.1 63.0143C111.036 63.4992 111.18 63.9888 111.497 64.3609C111.815 64.7331 112.276 64.9528 112.765 64.9651L129.019 65.3799C129.519 65.3922 129.989 65.6214 130.307 66.0079C130.624 66.3944 130.758 66.9 130.673 67.393L122.547 114.855L122.394 115.752C122.356 115.981 122.271 116.2 122.145 116.395L65.6629 116.442Z" fill="#004B50"/>
<rect x="114.715" y="51.5312" width="9.51728" height="32.3027" transform="rotate(34.64 114.715 51.5312)" fill="white"/>
<rect x="115.279" y="52.791" width="6.71903" height="6.71903" transform="rotate(34.804 115.279 52.791)" fill="#FFAB00"/>
<rect opacity="0.5" x="110.957" y="59.4395" width="6.72812" height="6.72812" transform="rotate(34.64 110.957 59.4395)" fill="#FFAB00"/>
<rect opacity="0.3" x="106.338" y="66.1221" width="6.72813" height="6.72813" transform="rotate(34.64 106.338 66.1221)" fill="#FFAB00"/>
<rect x="103.652" y="49.8672" width="9.51729" height="32.1806" transform="rotate(16.29 103.652 49.8672)" fill="white"/>
<rect x="104.852" y="50.7588" width="6.72812" height="6.72812" transform="rotate(16.29 104.852 50.7588)" fill="#FF5630"/>
<rect opacity="0.5" x="102.572" y="58.5557" width="6.72812" height="6.72812" transform="rotate(16.29 102.572 58.5557)" fill="#FF5630"/>
<rect opacity="0.3" x="100.293" y="66.3506" width="6.72813" height="6.72813" transform="rotate(16.29 100.293 66.3506)" fill="#FF5630"/>
<rect x="97.1797" y="50.3545" width="9.51729" height="32.1806" transform="rotate(4.6 97.1797 50.3545)" fill="white"/>
<rect x="98.5312" y="50.9854" width="6.72812" height="6.72812" transform="rotate(4.6 98.5312 50.9854)" fill="#00B8D9"/>
<rect opacity="0.5" x="97.8789" y="59.0801" width="6.72812" height="6.72812" transform="rotate(4.6 97.8789 59.0801)" fill="#00B8D9"/>
<rect opacity="0.3" x="97.2266" y="67.1768" width="6.72812" height="6.72812" transform="rotate(4.6 97.2266 67.1768)" fill="#00B8D9"/>
<rect x="92.9121" y="51.6436" width="9.51728" height="32.1806" transform="rotate(-2.61 92.9121 51.6436)" fill="white"/>
<rect x="94.3301" y="52.0986" width="6.72813" height="6.72812" transform="rotate(-2.61 94.3301 52.0986)" fill="#00A76F"/>
<rect opacity="0.5" x="94.9629" y="59.9551" width="6.73653" height="6.73653" transform="rotate(-2.86241 94.9629 59.9551)" fill="#00A76F"/>
<rect opacity="0.3" x="95.0684" y="68.3271" width="6.72812" height="6.72813" transform="rotate(-2.61 95.0684 68.3271)" fill="#00A76F"/>
<path d="M96.9498 94.053L88.4939 97.3242L76.1351 102.102C75.668 101.23 74.9803 100.051 74.1295 98.6447C71.2021 93.7939 66.3587 86.2486 62.046 79.6176C57.1877 72.1433 53.0059 65.8362 53.0059 65.8362L56.033 64.9642L80.7605 57.7852L96.9498 94.053Z" fill="#F4F6F8"/>
<path opacity="0.1" d="M96.9488 94.053L88.4929 97.3242C83.7692 98.3084 78.9487 98.7514 74.1248 98.6447C71.1973 93.7939 66.354 86.2486 62.0413 79.6176L56.0332 64.9592L80.7595 57.7852L96.9488 94.053Z" fill="black"/>
<path d="M103.241 92.0172C103.241 92.0172 90.105 99.788 70.4924 98.0303L54.8574 59.9113L62.3504 58.6233L88.2539 54.1748L102.953 91.276L103.241 92.0172Z" fill="#00A76F"/>
<path opacity="0.1" d="M102.948 91.2809C99.8544 91.4329 96.2755 91.4179 92.6754 90.9882C88.7788 90.5297 84.8597 89.5855 81.5 87.8539C78.6909 86.4077 76.2892 84.8343 74.1951 82.947C68.7476 78.0476 65.3767 71.0392 62.3496 58.6281L88.2531 54.1797L102.948 91.2809Z" fill="#FF5630"/>
<path d="M112.584 89.1495C112.584 89.1495 102.901 91.0455 93.0452 89.8782C89.1486 89.4198 85.2296 88.4756 81.8699 86.744C79.0608 85.2977 76.6603 83.7244 74.565 81.8371C67.8232 75.7717 64.2629 66.4762 60.5918 47.7045C60.5918 47.7045 76.689 51.5898 92.6067 43.0791C92.6018 43.0853 97.9671 76.5677 112.584 89.1495Z" fill="white"/>
<g opacity="0.3">
<path d="M68.918 54.5957C68.918 54.5957 82.008 53.8557 85.6629 51.0342L86.2173 52.8156C86.2173 52.8156 77.5682 56.6312 68.918 56.6773V54.5957Z" fill="#00A76F"/>
<path d="M68.918 63.3904C68.918 63.3904 81.5919 62.6966 91.1677 58.0712L91.4916 58.8112C91.4916 58.8112 83.8927 63.2472 68.918 64.4082V63.3904Z" fill="#00A76F"/>
<path d="M69.9385 66.8175C69.9385 66.8175 82.6124 66.1236 92.187 61.4983L92.5109 62.2382C92.5109 62.2382 84.912 66.673 69.9385 67.8352V66.8175Z" fill="#00A76F"/>
<path d="M70.9574 70.2494C70.9574 70.2494 83.6313 69.5555 93.2071 64.9302L93.5298 65.6701C93.5298 65.6701 85.9309 70.1061 70.9574 71.2671V70.2494Z" fill="#00A76F"/>
<path d="M71.9775 73.6814C71.9775 73.6814 84.6514 72.9875 94.226 68.3622L94.5499 69.1021C94.5499 69.1021 86.951 73.5381 71.9775 74.6991V73.6814Z" fill="#00A76F"/>
<path d="M72.9963 77.1145C72.9963 77.1145 85.6703 76.4206 95.2461 71.7953L95.5687 72.5352C95.5687 72.5352 87.9699 76.97 72.9963 78.1323V77.1145Z" fill="#00A76F"/>
</g>
<path d="M162.112 119.727C162.112 119.727 156.845 119.41 157.466 123.101C157.466 123.101 157.341 123.752 157.934 124.049C157.934 124.049 157.943 123.775 158.473 123.868C158.663 123.9 158.855 123.909 159.046 123.895C159.305 123.878 159.55 123.777 159.745 123.606C159.745 123.606 161.226 122.995 161.802 120.576C161.802 120.576 162.228 120.047 162.21 119.912L161.322 120.285C161.322 120.285 161.626 120.927 161.387 121.459C161.387 121.459 161.358 120.309 161.188 120.338C161.153 120.338 160.726 120.559 160.726 120.559C160.726 120.559 161.248 121.681 160.85 122.488C160.85 122.488 161 121.111 160.559 120.64L159.936 121.005C159.936 121.005 160.546 122.159 160.133 123.101C160.133 123.101 160.238 121.657 159.804 121.094L159.237 121.536C159.237 121.536 159.811 122.673 159.461 123.454C159.461 123.454 159.415 121.773 159.114 121.646C159.114 121.646 158.615 122.083 158.543 122.269C158.543 122.269 158.935 123.093 158.691 123.529C158.691 123.529 158.542 122.408 158.42 122.408C158.42 122.408 157.921 123.156 157.874 123.654C157.874 123.654 157.895 122.896 158.3 122.332C158.015 122.387 157.752 122.523 157.543 122.725C157.543 122.725 157.62 122.199 158.422 122.154C158.422 122.154 158.831 121.591 158.939 121.556C158.939 121.556 158.142 121.49 157.659 121.704C157.659 121.704 158.085 121.206 159.086 121.434L159.646 120.978C159.646 120.978 158.595 120.834 158.151 120.993C158.151 120.993 158.663 120.554 159.796 120.868L160.405 120.505C160.405 120.505 159.511 120.312 158.978 120.38C158.978 120.38 159.54 120.076 160.585 120.405L161.02 120.209C161.02 120.209 160.364 120.085 160.172 120.06C159.981 120.035 159.969 119.988 159.969 119.988C160.385 119.918 160.812 119.965 161.201 120.125C161.201 120.125 162.127 119.786 162.112 119.727Z" fill="#00A76F"/>
<path d="M164.565 107.543C164.565 107.543 161.596 107.364 161.949 109.445C161.912 109.661 162.018 109.877 162.212 109.98C162.212 109.98 162.218 109.825 162.517 109.877C162.624 109.895 162.732 109.9 162.84 109.892C162.985 109.883 163.123 109.826 163.233 109.73C163.233 109.73 164.068 109.385 164.393 108.021C164.393 108.021 164.634 107.724 164.624 107.648L164.125 107.861C164.125 107.861 164.296 108.223 164.161 108.523C164.161 108.523 164.145 107.874 164.049 107.889C164.029 107.889 163.789 108.014 163.789 108.014C163.789 108.014 164.083 108.637 163.861 109.101C163.861 109.101 163.946 108.325 163.697 108.059L163.344 108.265C163.344 108.265 163.688 108.916 163.455 109.446C163.455 109.446 163.515 108.632 163.269 108.315L162.951 108.564C162.951 108.564 163.273 109.206 163.075 109.646C163.075 109.646 163.049 108.698 162.88 108.627C162.759 108.729 162.65 108.846 162.557 108.974C162.557 108.974 162.779 109.44 162.642 109.686C162.642 109.686 162.557 109.054 162.488 109.052C162.488 109.052 162.209 109.469 162.181 109.755C162.194 109.489 162.277 109.232 162.421 109.008C162.26 109.038 162.111 109.115 161.994 109.23C161.994 109.23 162.037 108.933 162.492 108.908C162.492 108.908 162.723 108.591 162.784 108.571C162.784 108.571 162.334 108.533 162.061 108.654C162.061 108.654 162.302 108.375 162.866 108.502L163.182 108.244C163.182 108.244 162.589 108.163 162.339 108.253C162.339 108.253 162.628 108.004 163.267 108.186L163.611 107.98C163.346 107.922 163.075 107.899 162.805 107.912C162.805 107.912 163.122 107.74 163.71 107.925L163.96 107.816C163.96 107.816 163.586 107.742 163.481 107.731C163.377 107.72 163.367 107.69 163.367 107.69C163.601 107.651 163.842 107.678 164.062 107.767C164.062 107.767 164.575 107.575 164.565 107.543Z" fill="#00A76F"/>
<path d="M147.04 109.349C147.04 109.349 143.455 109.132 143.879 111.645C143.833 111.906 143.962 112.167 144.196 112.29C144.196 112.29 144.196 112.103 144.57 112.166C144.699 112.188 144.83 112.194 144.96 112.184C145.136 112.173 145.303 112.104 145.436 111.988C145.436 111.988 146.443 111.572 146.836 109.925C146.836 109.925 147.126 109.566 147.114 109.473L146.502 109.732C146.502 109.732 146.709 110.168 146.546 110.53C146.546 110.53 146.526 109.748 146.41 109.765C146.386 109.765 146.096 109.917 146.096 109.917C146.096 109.917 146.451 110.677 146.183 111.23C146.183 111.23 146.285 110.293 145.985 109.972L145.559 110.221C145.559 110.221 145.974 111.007 145.692 111.648C145.692 111.648 145.765 110.665 145.469 110.277L145.083 110.579C145.083 110.579 145.474 111.352 145.235 111.884C145.235 111.884 145.205 110.739 145 110.653C145 110.653 144.662 110.951 144.611 111.073C144.611 111.073 144.878 111.635 144.712 111.932C144.712 111.932 144.61 111.169 144.526 111.165C144.526 111.165 144.191 111.671 144.153 112.016C144.169 111.696 144.269 111.386 144.443 111.117C144.249 111.154 144.07 111.247 143.928 111.385C143.928 111.385 143.981 111.027 144.526 110.996C144.526 110.996 144.804 110.612 144.879 110.59C144.879 110.59 144.336 110.544 144.007 110.69C144.007 110.69 144.296 110.353 144.977 110.506L145.358 110.195C145.358 110.195 144.645 110.098 144.341 110.205C144.341 110.205 144.689 109.907 145.462 110.125L145.877 109.876C145.877 109.876 145.268 109.745 144.904 109.793C144.904 109.793 145.287 109.586 145.997 109.81L146.294 109.677C146.294 109.677 145.848 109.59 145.717 109.576C145.586 109.562 145.58 109.526 145.58 109.526C145.863 109.478 146.153 109.51 146.419 109.618C146.419 109.618 147.051 109.388 147.04 109.349Z" fill="#00A76F"/>
<rect x="115.889" y="52.0889" width="21.2607" height="38.0467" rx="4.73723" transform="rotate(-71.99 115.889 52.0889)" fill="white"/>
<g opacity="0.24">
<path d="M130.413 43.1283C130.413 45.2858 128.664 47.0348 126.506 47.0348C124.349 47.0348 122.6 45.2858 122.6 43.1283C122.6 40.9707 124.349 39.2217 126.506 39.2217C128.664 39.2217 130.413 40.9707 130.413 43.1283Z" fill="#00A76F"/>
<path d="M135.853 42.425L136.184 41.4073L152.37 46.6697L152.039 47.6873L135.853 42.425Z" fill="#00A76F"/>
<path d="M135.009 45.0195L135.34 44.0018L143.586 46.6825L143.255 47.7002L135.009 45.0195Z" fill="#00A76F"/>
<path d="M134.164 47.6157L134.495 46.598L147.831 50.9337L147.5 51.9514L134.164 47.6157Z" fill="#00A76F"/>
<path d="M133.321 50.2108L133.652 49.1932L149.838 54.4556L149.507 55.4732L133.321 50.2108Z" fill="#00A76F"/>
</g>
<rect opacity="0.5" x="143.5" y="58.7139" width="2.06914" height="4.71006" transform="rotate(-71.99 143.5 58.7139)" fill="#00A76F"/>
<path d="M115.933 91.1718C114.075 89.9772 113.537 87.5024 114.731 85.6441L121.739 74.7437C122.933 72.8854 125.408 72.3474 127.267 73.542L147.982 86.8592C149.84 88.0538 150.378 90.5287 149.184 92.387L142.176 103.287C140.982 105.146 138.507 105.684 136.649 104.489L115.933 91.1718Z" fill="white"/>
<path d="M129.625 94.6539L136.609 83.6621L137.689 84.3482L130.705 95.34L129.625 94.6539Z" fill="#F4F6F8"/>
<path d="M131.932 96.1184L138.915 85.1265L139.995 85.8126L133.012 96.8044L131.932 96.1184Z" fill="#F4F6F8"/>
<path d="M116.637 87.7797L119.817 82.7748L120.994 83.523L117.814 88.5279L116.637 87.7797Z" fill="#C4CDD5"/>
<path d="M120.401 88.7936L127.384 77.8018L128.464 78.4878L121.48 89.4796L120.401 88.7936Z" fill="#C4CDD5"/>
<path d="M122.707 90.2578L129.691 79.266L130.771 79.9521L123.787 90.9439L122.707 90.2578Z" fill="#C4CDD5"/>
<path d="M125.014 91.7245L131.997 80.7327L133.077 81.4187L126.093 92.4105L125.014 91.7245Z" fill="#C4CDD5"/>
<path d="M127.4 93.8494L134.432 82.9103L135.507 83.6012L128.475 94.5403L127.4 93.8494Z" fill="#C4CDD5"/>
<path d="M141.617 89.8751L143.426 87.0288L146.272 88.8372L144.463 91.6835L141.617 89.8751Z" fill="#C4CDD5"/>
<path d="M112.199 70.3165L93.1291 70.522C92.4153 70.5295 91.8404 71.11 91.8398 71.8238V73.3996C91.8393 74.1063 91.2756 74.6838 90.5692 74.7014L76.809 75.0315C76.2089 75.0466 75.6763 74.6493 75.5196 74.0698L74.8731 71.6942C74.7181 71.1211 74.1949 70.7256 73.6012 70.7325L55.2207 70.9306C54.8395 70.9343 54.4792 71.1049 54.2347 71.3973C53.9902 71.6898 53.8862 72.0746 53.95 72.4504L61.3446 115.971C61.4506 116.595 61.9905 117.053 62.624 117.056L120.692 117.305C121.081 117.306 121.45 117.134 121.699 116.834C121.947 116.535 122.049 116.14 121.976 115.758L113.49 71.3741C113.372 70.7555 112.828 70.3101 112.199 70.3165Z" fill="url(#paint0_linear_372_20653)"/>
<g opacity="0.2">
<path d="M162.211 124.37C162.211 124.718 160.542 125 158.484 125C156.426 125 154.757 124.718 154.757 124.37C154.757 124.022 156.426 123.739 158.484 123.739C160.542 123.739 162.211 124.022 162.211 124.37Z" fill="#00A76F"/>
<path d="M164.623 110.16C164.623 110.356 163.682 110.515 162.522 110.515C161.361 110.515 160.42 110.356 160.42 110.16C160.42 109.964 161.361 109.805 162.522 109.805C163.682 109.805 164.623 109.964 164.623 110.16Z" fill="#00A76F"/>
<path d="M147.108 112.509C147.108 112.746 145.972 112.938 144.571 112.938C143.17 112.938 142.033 112.746 142.033 112.509C142.033 112.273 143.17 112.081 144.571 112.081C145.972 112.081 147.108 112.273 147.108 112.509Z" fill="#00A76F"/>
<path d="M51.8497 107.777C51.8497 107.93 50.9456 108.055 49.8303 108.055C48.7151 108.055 47.811 107.93 47.811 107.777C47.811 107.623 48.7151 107.499 49.8303 107.499C50.9456 107.499 51.8497 107.623 51.8497 107.777Z" fill="#00A76F"/>
<path d="M44.1149 108.56C44.1149 108.714 43.2108 108.838 42.0956 108.838C40.9803 108.838 40.0763 108.714 40.0763 108.56C40.0763 108.407 40.9803 108.283 42.0956 108.283C43.2108 108.283 44.1149 108.407 44.1149 108.56Z" fill="#00A76F"/>
<path d="M46.6264 110.794C46.6264 110.903 45.9839 110.991 45.1913 110.991C44.3988 110.991 43.7563 110.903 43.7563 110.794C43.7563 110.685 44.3988 110.597 45.1913 110.597C45.9839 110.597 46.6264 110.685 46.6264 110.794Z" fill="#00A76F"/>
<path d="M38.5986 110.597C38.5986 110.706 37.9561 110.794 37.1636 110.794C36.371 110.794 35.7285 110.706 35.7285 110.597C35.7285 110.488 36.371 110.4 37.1636 110.4C37.9561 110.4 38.5986 110.488 38.5986 110.597Z" fill="#00A76F"/>
</g>
<path d="M36.3728 110.149C36.2825 110.075 36.2169 109.976 36.1847 109.864C36.1529 109.748 36.2084 109.626 36.3167 109.573C36.4413 109.527 36.5659 109.611 36.6655 109.698C36.7652 109.785 36.8785 109.877 37.0031 109.856C36.8686 109.734 36.8081 109.551 36.8437 109.373C36.8488 109.337 36.8639 109.302 36.8873 109.274C36.9545 109.202 37.0766 109.233 37.1576 109.291C37.4067 109.47 37.4852 109.817 37.4864 110.131C37.4989 110.016 37.4989 109.9 37.4864 109.785C37.4798 109.667 37.532 109.554 37.626 109.482C37.6866 109.449 37.755 109.433 37.824 109.435C37.9398 109.418 38.0571 109.452 38.1467 109.527C38.2339 109.646 38.2288 109.809 38.1342 109.922C38.0388 110.029 37.9259 110.119 37.8004 110.189C37.7051 110.246 37.6238 110.324 37.5624 110.417C37.5549 110.429 37.549 110.443 37.545 110.456H36.82C36.6577 110.375 36.5073 110.271 36.3728 110.149Z" fill="#00A76F"/>
<path d="M49.0105 107.431C48.92 107.358 48.8543 107.258 48.8224 107.147C48.7904 107.031 48.8454 106.909 48.9532 106.856C49.0777 106.81 49.2023 106.894 49.302 106.981C49.4016 107.068 49.5137 107.163 49.642 107.144C49.5075 107.023 49.4465 106.84 49.4813 106.662C49.4869 106.626 49.5024 106.592 49.5262 106.564C49.5934 106.491 49.7155 106.523 49.7965 106.579C50.0519 106.759 50.1241 107.107 50.1254 107.421C50.1378 107.305 50.1378 107.189 50.1254 107.073C50.1141 106.957 50.1606 106.842 50.2499 106.767C50.3109 106.734 50.3791 106.719 50.448 106.721C50.5636 106.704 50.6806 106.737 50.7707 106.812C50.8582 106.931 50.8525 107.095 50.757 107.208C50.6622 107.315 50.5497 107.405 50.4243 107.474C50.329 107.531 50.2477 107.609 50.1864 107.701C50.1791 107.714 50.1733 107.728 50.169 107.742H49.4602C49.2967 107.659 49.1453 107.555 49.0105 107.431Z" fill="#00A76F"/>
<path d="M44.7989 110.149C44.7087 110.075 44.6428 109.975 44.6096 109.864C44.5778 109.748 44.6333 109.625 44.7416 109.573C44.8662 109.527 44.9907 109.611 45.0904 109.698C45.1901 109.785 45.3009 109.88 45.4305 109.862C45.2962 109.74 45.2353 109.557 45.2698 109.379C45.2753 109.343 45.2908 109.309 45.3146 109.281C45.3819 109.208 45.504 109.239 45.585 109.297C45.8403 109.476 45.9113 109.824 45.9138 110.138C45.9263 110.022 45.9263 109.906 45.9138 109.791C45.904 109.674 45.953 109.559 46.0446 109.485C46.1052 109.452 46.1736 109.435 46.2427 109.437C46.3584 109.421 46.4757 109.455 46.5653 109.53C46.6527 109.649 46.647 109.812 46.5516 109.925C46.4566 110.032 46.3442 110.122 46.219 110.191C46.1237 110.248 46.0425 110.326 45.9811 110.419C45.9736 110.432 45.9677 110.445 45.9637 110.459H45.2411C45.0806 110.376 44.9319 110.271 44.7989 110.149Z" fill="#00A76F"/>
<g opacity="0.08">
<path d="M37.889 36.2513C37.889 37.7394 36.6826 38.9458 35.1945 38.9458C33.7064 38.9458 32.5 37.7394 32.5 36.2513C32.5 34.7632 33.7064 33.5568 35.1945 33.5568C36.6826 33.5568 37.889 34.7632 37.889 36.2513Z" fill="#00A76F"/>
<path d="M167.455 57.7835C167.455 59.2716 166.248 60.478 164.76 60.478C163.272 60.478 162.066 59.2716 162.066 57.7835C162.066 56.2954 163.272 55.089 164.76 55.089C166.248 55.089 167.455 56.2954 167.455 57.7835Z" fill="#00A76F"/>
<path d="M119.019 27.6945C119.019 29.1826 117.813 30.389 116.324 30.389C114.836 30.389 113.63 29.1826 113.63 27.6945C113.63 26.2064 114.836 25 116.324 25C117.813 25 119.019 26.2064 119.019 27.6945Z" fill="#00A76F"/>
<path d="M45.0992 51.1165C45.0992 53.6104 43.0774 55.6322 40.5834 55.6322C38.0895 55.6322 36.0677 53.6104 36.0677 51.1165C36.0677 48.6225 38.0895 46.6007 40.5834 46.6007C43.0774 46.6007 45.0992 48.6225 45.0992 51.1165Z" fill="#00A76F"/>
</g>
<path fill-rule="evenodd" clip-rule="evenodd" d="M85.8449 87.4629C82.5219 87.4629 79.8281 90.1567 79.8281 93.4797C79.8281 96.8027 82.5219 99.4965 85.8449 99.4965C89.1679 99.4965 91.8618 96.8027 91.8618 93.4797C91.8618 90.1567 89.1679 87.4629 85.8449 87.4629V87.4629Z" fill="#007867"/>
<path opacity="0.72" fill-rule="evenodd" clip-rule="evenodd" d="M85.8462 88.1631C88.7827 88.1631 91.1631 90.5436 91.1631 93.48C91.1631 96.4165 88.7827 98.7969 85.8462 98.7969C82.9098 98.7969 80.5293 96.4165 80.5293 93.48C80.5319 90.5446 82.9108 88.1657 85.8462 88.1631Z" fill="#00A76F"/>
<path fill-rule="evenodd" clip-rule="evenodd" d="M83.3583 93.9188L83.0673 93.6349C83.0044 93.5774 82.9688 93.4971 82.9688 93.413C82.9688 93.329 83.0044 93.2486 83.0673 93.1912L85.6201 90.6977C85.6789 90.6364 85.7612 90.6016 85.8474 90.6016C85.9335 90.6016 86.0158 90.6364 86.0747 90.6977L88.6275 93.189C88.6891 93.2471 88.724 93.3271 88.724 93.4108C88.724 93.4945 88.6891 93.5745 88.6275 93.6326L88.3365 93.9166C88.277 93.9768 88.1949 94.0108 88.1092 94.0108C88.0235 94.0108 87.9414 93.9768 87.8819 93.9166L86.3725 92.3637V96.0484C86.3731 96.13 86.3403 96.2084 86.2814 96.2663C86.2225 96.3242 86.1424 96.3568 86.0588 96.3568H85.6383C85.4637 96.3568 85.3223 96.2187 85.3223 96.0484V92.3682L83.8129 93.921C83.7531 93.9809 83.6708 94.0145 83.5851 94.0141C83.4994 94.0137 83.4175 93.9793 83.3583 93.9188Z" fill="#007867"/>
<path d="M42.0514 108.499C42.0514 108.499 44.8829 99.2159 41.6079 95.4975C39.1576 92.7158 36.3759 93.0484 35.1302 93.3922C34.4783 93.5663 33.9355 94.0176 33.6453 94.6267C33.2093 95.566 33.2877 97.0907 36.3622 98.8709C41.5082 101.851 41.8284 105.938 41.8284 105.938L42.0514 108.499Z" fill="#00A76F"/>
<path d="M42.1664 108.572C42.1664 108.572 38.849 101.826 37.9384 101.97C37.5062 102.041 37.3069 102.468 37.2159 102.894C37.1041 103.447 37.1672 104.021 37.3965 104.536C37.8674 105.62 39.1318 107.669 42.1664 108.572Z" fill="#00A76F"/>
<path d="M42.0676 108.572C42.0676 108.572 45.3837 101.826 46.2943 101.97C46.7279 102.041 46.9272 102.468 47.0169 102.894C47.1287 103.447 47.0655 104.021 46.8362 104.536C46.3654 105.62 45.0997 107.669 42.0676 108.572Z" fill="#00A76F"/>
<path fill-rule="evenodd" clip-rule="evenodd" d="M35.4755 94.6775C35.4927 94.6226 35.5511 94.5921 35.606 94.6093L35.5749 94.7087C35.606 94.6093 35.606 94.6093 35.606 94.6093L35.6067 94.6095L35.6081 94.6099L35.6131 94.6115L35.632 94.6178C35.6484 94.6233 35.6724 94.6316 35.7035 94.6428C35.7656 94.6652 35.8559 94.6994 35.9698 94.7467C36.1976 94.8414 36.52 94.989 36.9005 95.201C37.6614 95.6251 38.656 96.308 39.5918 97.3436C41.4667 99.4187 43.0947 102.898 42.1554 108.516C42.1459 108.573 42.0922 108.611 42.0354 108.602C41.9787 108.592 41.9404 108.538 41.9499 108.482C42.8791 102.925 41.2682 99.5098 39.4372 97.4833C38.5199 96.4682 37.5448 95.7986 36.7991 95.383C36.4263 95.1753 36.1112 95.0311 35.8899 94.9391C35.7792 94.8931 35.692 94.8601 35.6328 94.8388C35.6032 94.8281 35.5806 94.8203 35.5656 94.8153L35.5488 94.8097L35.5447 94.8084L35.5439 94.8081C35.489 94.7909 35.4583 94.7324 35.4755 94.6775Z" fill="#007867"/>
<path fill-rule="evenodd" clip-rule="evenodd" d="M40.537 95.586C40.5692 95.6337 40.5566 95.6984 40.5089 95.7306L40.5086 95.7308L40.5067 95.7321L40.4984 95.738C40.4909 95.7433 40.4796 95.7516 40.4652 95.7626C40.4363 95.7847 40.3948 95.8179 40.346 95.8613C40.248 95.9485 40.1215 96.076 40.0064 96.2377C39.7762 96.5608 39.5964 97.0118 39.7665 97.5526C39.7837 97.6075 39.7532 97.6659 39.6983 97.6832C39.6434 97.7005 39.585 97.67 39.5677 97.6151C39.3715 96.9911 39.5835 96.4723 39.8367 96.1168C39.9632 95.9392 40.1012 95.8002 40.2075 95.7057C40.2607 95.6583 40.3062 95.6219 40.3387 95.597C40.355 95.5846 40.3681 95.5751 40.3772 95.5685L40.388 95.5609L40.391 95.5588L40.3919 95.5582L40.3923 95.5579C40.3923 95.5579 40.3924 95.5579 40.4486 95.6412L40.3923 95.5579C40.4401 95.5258 40.5049 95.5383 40.537 95.586Z" fill="#007867"/>
<path fill-rule="evenodd" clip-rule="evenodd" d="M36.4862 96.4074L36.4872 96.4064L36.4921 96.4016C36.4967 96.3972 36.5038 96.3905 36.5134 96.3819C36.5325 96.3647 36.5612 96.34 36.5985 96.3114C36.6732 96.2541 36.781 96.1816 36.9135 96.1209C37.1779 95.9999 37.5345 95.9279 37.9266 96.1088C37.9789 96.1329 38.0408 96.1101 38.0649 96.0579C38.089 96.0056 38.0662 95.9438 38.0139 95.9197C37.5503 95.7057 37.1277 95.7938 36.8268 95.9315C36.6767 96.0003 36.5554 96.0819 36.4716 96.1462C36.4296 96.1785 36.3967 96.2066 36.3741 96.227C36.3628 96.2372 36.354 96.2454 36.3478 96.2513L36.3407 96.2583L36.3386 96.2603L36.338 96.261L36.3376 96.2613C36.3376 96.2613 36.3376 96.2614 36.4119 96.3344L36.3376 96.2613C36.2973 96.3023 36.2978 96.3684 36.3389 96.4087C36.3799 96.449 36.4459 96.4484 36.4862 96.4074Z" fill="#007867"/>
<path fill-rule="evenodd" clip-rule="evenodd" d="M39.7588 100.023L39.7592 100.022L39.7614 100.021L39.7708 100.017C39.7793 100.013 39.7919 100.007 39.8083 99.9993C39.8412 99.9844 39.8888 99.964 39.9469 99.9417C40.0639 99.897 40.2211 99.846 40.3861 99.8185C40.5524 99.7908 40.7179 99.7884 40.8562 99.8327C40.9897 99.8755 41.1016 99.9625 41.1688 100.127C41.1906 100.18 41.2514 100.206 41.3046 100.184C41.3579 100.162 41.3834 100.102 41.3617 100.048C41.2695 99.8225 41.1075 99.6944 40.9198 99.6343C40.7369 99.5757 40.534 99.5826 40.3518 99.613C40.1684 99.6436 39.997 99.6995 39.8725 99.7471C39.81 99.7711 39.7586 99.7931 39.7227 99.8093C39.7047 99.8175 39.6906 99.8241 39.6808 99.8288L39.6694 99.8343L39.6663 99.8359L39.6654 99.8363L39.665 99.8365C39.665 99.8365 39.6649 99.8365 39.7118 99.9295L39.665 99.8365C39.6136 99.8624 39.5929 99.9251 39.6188 99.9765C39.6448 100.028 39.7074 100.048 39.7588 100.023Z" fill="#007867"/>
<path fill-rule="evenodd" clip-rule="evenodd" d="M37.9039 103.167C37.9512 103.135 38.0161 103.147 38.0487 103.194L37.963 103.253L37.8772 103.312C37.8446 103.265 37.8565 103.2 37.9039 103.167ZM37.963 103.253C37.8772 103.312 37.8772 103.312 37.8772 103.312L37.9166 103.369C37.9423 103.406 37.9801 103.461 38.0284 103.53C38.125 103.669 38.2637 103.867 38.4323 104.105C38.7693 104.582 39.2259 105.221 39.7036 105.867C40.1811 106.512 40.6807 107.166 41.1035 107.672C41.3148 107.926 41.5082 108.144 41.671 108.306C41.7524 108.387 41.8274 108.456 41.8943 108.509C41.9592 108.56 42.0238 108.602 42.0836 108.621C42.1382 108.639 42.1971 108.61 42.2151 108.555C42.2331 108.5 42.2035 108.442 42.1488 108.424C42.1245 108.416 42.0831 108.392 42.0231 108.345C41.9651 108.299 41.8964 108.237 41.8182 108.159C41.6619 108.003 41.4731 107.79 41.2635 107.539C40.8445 107.037 40.3478 106.387 39.8711 105.743C39.3946 105.099 38.939 104.461 38.6024 103.985C38.4341 103.747 38.2957 103.549 38.1993 103.411C38.1511 103.342 38.1135 103.287 38.0879 103.251L38.0487 103.194C38.0487 103.194 38.0487 103.194 37.963 103.253Z" fill="#007867"/>
<path fill-rule="evenodd" clip-rule="evenodd" d="M37.5386 104.042C37.5386 103.984 37.5852 103.937 37.6428 103.937H38.455C38.5125 103.937 38.5591 103.984 38.5591 104.042C38.5591 104.099 38.5125 104.146 38.455 104.146H37.6428C37.5852 104.146 37.5386 104.099 37.5386 104.042Z" fill="#007867"/>
<path fill-rule="evenodd" clip-rule="evenodd" d="M38.5116 105.883C38.5141 105.826 38.5627 105.781 38.6201 105.784L39.8945 105.839C39.952 105.841 39.9966 105.89 39.9941 105.947C39.9916 106.005 39.943 106.049 39.8855 106.047L38.6112 105.992C38.5537 105.989 38.5091 105.941 38.5116 105.883Z" fill="#007867"/>
<path fill-rule="evenodd" clip-rule="evenodd" d="M39.4128 104.308C39.4691 104.32 39.5052 104.375 39.4935 104.432L39.3552 105.096C39.3435 105.152 39.2884 105.188 39.232 105.176C39.1757 105.165 39.1396 105.109 39.1513 105.053L39.2896 104.389C39.3013 104.333 39.3565 104.297 39.4128 104.308Z" fill="#007867"/>
<path fill-rule="evenodd" clip-rule="evenodd" d="M40.75 106.326C40.8074 106.328 40.8521 106.376 40.8497 106.434L40.8248 107.037C40.8224 107.094 40.7739 107.139 40.7164 107.137C40.659 107.134 40.6143 107.086 40.6167 107.028L40.6416 106.425C40.644 106.368 40.6925 106.323 40.75 106.326Z" fill="#007867"/>
<path fill-rule="evenodd" clip-rule="evenodd" d="M46.185 103.194C46.2177 103.147 46.2826 103.135 46.3299 103.167C46.3772 103.2 46.3891 103.265 46.3564 103.312L46.2707 103.253L46.185 103.194ZM46.185 103.194C46.185 103.194 46.185 103.194 46.2707 103.253C46.3564 103.312 46.3564 103.312 46.3564 103.312L46.3169 103.369C46.2912 103.406 46.2533 103.461 46.2049 103.53C46.1081 103.669 45.9692 103.867 45.8003 104.105C45.4626 104.582 45.0053 105.221 44.5271 105.867C44.049 106.512 43.5492 107.166 43.1265 107.672C42.9153 107.926 42.7221 108.144 42.5598 108.306C42.4786 108.387 42.4038 108.456 42.3373 108.508C42.2728 108.56 42.2085 108.602 42.1491 108.621C42.0945 108.639 42.0355 108.61 42.0174 108.555C41.9992 108.501 42.0288 108.442 42.0833 108.424C42.1072 108.416 42.1483 108.392 42.2081 108.345C42.2659 108.299 42.3344 108.237 42.4124 108.159C42.5684 108.003 42.757 107.79 42.9665 107.539C43.3853 107.037 43.8824 106.387 44.3597 105.743C44.8367 105.099 45.2931 104.461 45.6303 103.985C45.7988 103.747 45.9375 103.549 46.0341 103.411C46.0824 103.342 46.1201 103.287 46.1458 103.25L46.185 103.194Z" fill="#007867"/>
<path fill-rule="evenodd" clip-rule="evenodd" d="M45.6742 104.042C45.6742 103.984 45.7208 103.937 45.7783 103.937H46.5905C46.6481 103.937 46.6947 103.984 46.6947 104.042C46.6947 104.099 46.6481 104.146 46.5905 104.146H45.7783C45.7208 104.146 45.6742 104.099 45.6742 104.042Z" fill="#007867"/>
<path fill-rule="evenodd" clip-rule="evenodd" d="M45.7216 105.883C45.7241 105.941 45.6795 105.989 45.622 105.992L44.3477 106.047C44.2902 106.049 44.2416 106.005 44.2391 105.947C44.2366 105.89 44.2812 105.841 44.3387 105.839L45.6131 105.784C45.6706 105.781 45.7192 105.826 45.7216 105.883Z" fill="#007867"/>
<path fill-rule="evenodd" clip-rule="evenodd" d="M44.8204 104.308C44.8767 104.297 44.9319 104.333 44.9436 104.389L45.0819 105.053C45.0936 105.109 45.0575 105.165 45.0012 105.176C44.9448 105.188 44.8897 105.152 44.8779 105.096L44.7397 104.432C44.7279 104.375 44.7641 104.32 44.8204 104.308Z" fill="#007867"/>
<path fill-rule="evenodd" clip-rule="evenodd" d="M43.4834 106.326C43.5408 106.323 43.5894 106.368 43.5917 106.425L43.6167 107.028C43.619 107.086 43.5744 107.134 43.5169 107.137C43.4594 107.139 43.4109 107.094 43.4085 107.037L43.3836 106.434C43.3812 106.376 43.4259 106.328 43.4834 106.326Z" fill="#007867"/>
<defs>
<linearGradient id="paint0_linear_372_20653" x1="74.4286" y1="57.1828" x2="54.2464" y2="116.777" gradientUnits="userSpaceOnUse">
<stop stop-color="#00A76F"/>
<stop offset="1" stop-color="#007867"/>
</linearGradient>
</defs>
</svg>
