<svg width="20" height="20" viewBox="0 0 20 20" fill="none" xmlns="http://www.w3.org/2000/svg">
<path d="M7.50033 1.66663C5.31699 1.66663 3.54199 3.44163 3.54199 5.62496C3.54199 7.76663 5.21699 9.49996 7.40033 9.57496C7.46699 9.56663 7.53366 9.56663 7.58366 9.57496C7.60033 9.57496 7.60866 9.57496 7.62533 9.57496C7.63366 9.57496 7.63366 9.57496 7.64199 9.57496C9.77533 9.49996 11.4503 7.76663 11.4587 5.62496C11.4587 3.44163 9.68366 1.66663 7.50033 1.66663Z" fill="#0DB2B2"/>
<path d="M11.7338 11.7917C9.40879 10.2417 5.61712 10.2417 3.27546 11.7917C2.21712 12.5 1.63379 13.4583 1.63379 14.4833C1.63379 15.5083 2.21712 16.4583 3.26712 17.1583C4.43379 17.9416 5.96712 18.3333 7.50045 18.3333C9.03379 18.3333 10.5671 17.9416 11.7338 17.1583C12.7838 16.45 13.3671 15.5 13.3671 14.4667C13.3588 13.4417 12.7838 12.4917 11.7338 11.7917Z" fill="#0DB2B2"/>
<path d="M16.6588 6.11671C16.7921 7.73338 15.6421 9.15004 14.0505 9.34171C14.0421 9.34171 14.0421 9.34171 14.0338 9.34171H14.0088C13.9588 9.34171 13.9088 9.34171 13.8671 9.35838C13.0588 9.40004 12.3171 9.14171 11.7588 8.66671C12.6171 7.90004 13.1088 6.75004 13.0088 5.50004C12.9505 4.82504 12.7171 4.20838 12.3671 3.68338C12.6838 3.52504 13.0505 3.42504 13.4255 3.39171C15.0588 3.25004 16.5171 4.46671 16.6588 6.11671Z" fill="#0DB2B2"/>
<path d="M18.3249 13.825C18.2582 14.6334 17.7415 15.3334 16.8749 15.8084C16.0415 16.2667 14.9915 16.4834 13.9499 16.4584C14.5499 15.9167 14.8999 15.2417 14.9665 14.525C15.0499 13.4917 14.5582 12.5 13.5749 11.7084C13.0165 11.2667 12.3665 10.9167 11.6582 10.6584C13.4999 10.125 15.8165 10.4834 17.2415 11.6334C18.0082 12.25 18.3999 13.025 18.3249 13.825Z" fill="#0DB2B2"/>
</svg>
