<svg width="49" height="49" viewBox="0 0 49 49" fill="none" xmlns="http://www.w3.org/2000/svg">
<circle cx="24.5" cy="24.5" r="24.5" fill="black" fill-opacity="0.2"/>
<path d="M15.58 31.01L15.56 31.03C15.29 30.44 15.12 29.77 15.05 29.03C15.12 29.76 15.31 30.42 15.58 31.01Z" fill="#292D32"/>
<path d="M22 22.38C23.3144 22.38 24.38 21.3144 24.38 20C24.38 18.6856 23.3144 17.62 22 17.62C20.6856 17.62 19.62 18.6856 19.62 20C19.62 21.3144 20.6856 22.38 22 22.38Z" fill="#292D32"/>
<path d="M29.19 14H20.81C17.17 14 15 16.17 15 19.81V28.19C15 29.28 15.19 30.23 15.56 31.03C16.42 32.93 18.26 34 20.81 34H29.19C32.83 34 35 31.83 35 28.19V25.9V19.81C35 16.17 32.83 14 29.19 14ZM33.37 24.5C32.59 23.83 31.33 23.83 30.55 24.5L26.39 28.07C25.61 28.74 24.35 28.74 23.57 28.07L23.23 27.79C22.52 27.17 21.39 27.11 20.59 27.65L16.85 30.16C16.63 29.6 16.5 28.95 16.5 28.19V19.81C16.5 16.99 17.99 15.5 20.81 15.5H29.19C32.01 15.5 33.5 16.99 33.5 19.81V24.61L33.37 24.5Z" fill="#292D32"/>
</svg>
