<svg width="20" height="20" viewBox="0 0 20 20" fill="none" xmlns="http://www.w3.org/2000/svg">
<path d="M14.5415 14.4167C13.1415 14.4167 11.8499 13.7583 11.0082 12.6C10.8082 12.325 10.8665 11.9333 11.1415 11.725C11.4165 11.5167 11.8082 11.5833 12.0165 11.8583C12.6249 12.6833 13.5415 13.1583 14.5415 13.1583C16.2832 13.1583 17.7082 11.7417 17.7082 9.99168C17.7082 8.24168 16.2915 6.82502 14.5415 6.82502C13.3582 6.82502 12.2415 7.45835 11.6332 8.46668L9.42487 12.1417C8.59154 13.5333 7.06654 14.3917 5.44987 14.3917C3.01654 14.3917 1.0332 12.4083 1.0332 9.97502C1.0332 7.54168 3.01654 5.55835 5.44987 5.55835C6.84987 5.55835 8.14154 6.21668 8.9832 7.37502C9.1832 7.65002 9.12487 8.04168 8.84987 8.25002C8.56654 8.45835 8.1832 8.39168 7.97487 8.11668C7.37487 7.30835 6.4582 6.83335 5.4582 6.83335C3.71654 6.83335 2.29154 8.25002 2.29154 10C2.29154 11.75 3.7082 13.1667 5.4582 13.1667C6.64154 13.1667 7.7582 12.5333 8.36654 11.525L10.5749 7.85002C11.4082 6.45835 12.9332 5.60002 14.5499 5.60002C16.9832 5.60002 18.9665 7.58335 18.9665 10.0167C18.9665 12.45 16.9749 14.4167 14.5415 14.4167Z" fill="#0DB2B2"/>
<path d="M5.41667 11.6667C6.33714 11.6667 7.08333 10.9205 7.08333 10C7.08333 9.07957 6.33714 8.33337 5.41667 8.33337C4.49619 8.33337 3.75 9.07957 3.75 10C3.75 10.9205 4.49619 11.6667 5.41667 11.6667Z" fill="#0DB2B2"/>
<path d="M14.5837 11.6667C15.5041 11.6667 16.2503 10.9205 16.2503 10C16.2503 9.07957 15.5041 8.33337 14.5837 8.33337C13.6632 8.33337 12.917 9.07957 12.917 10C12.917 10.9205 13.6632 11.6667 14.5837 11.6667Z" fill="#0DB2B2"/>
</svg>
